<?xml version="1.0" encoding="utf-8"?>
<!-- Generator: Adobe Illustrator 16.0.0, SVG Export Plug-In . SVG Version: 6.00 Build 0)  -->
<!DOCTYPE svg PUBLIC "-//W3C//DTD SVG 1.1//EN" "http://www.w3.org/Graphics/SVG/1.1/DTD/svg11.dtd">
<svg version="1.1" id="Layer_1" xmlns="http://www.w3.org/2000/svg" xmlns:xlink="http://www.w3.org/1999/xlink" x="0px" y="0px"
	 width="580px" height="700px" viewBox="0 0 580 700" enable-background="new 0 0 580 700" xml:space="preserve">
<g>
	<defs>
		<rect id="SVGID_1_" width="580" height="700"/>
	</defs>
	<clipPath id="SVGID_2_">
		<use xlink:href="#SVGID_1_"  overflow="visible"/>
	</clipPath>
	<g clip-path="url(#SVGID_2_)">
		<rect fill="#64A340" width="580" height="700"/>
	</g>
	<g clip-path="url(#SVGID_2_)">
		<defs>
			<rect id="SVGID_3_" width="580" height="700"/>
		</defs>
		<clipPath id="SVGID_4_">
			<use xlink:href="#SVGID_3_"  overflow="visible"/>
		</clipPath>
		<g opacity="0.8" clip-path="url(#SVGID_4_)">
			<g>
				<defs>
					<rect id="SVGID_5_" y="-6.807" width="580" height="711.903"/>
				</defs>
				<clipPath id="SVGID_6_">
					<use xlink:href="#SVGID_5_"  overflow="visible"/>
				</clipPath>
				<g clip-path="url(#SVGID_6_)">
					<rect y="-6.807" fill="#333333" width="580" height="45.953"/>
				</g>
				<g clip-path="url(#SVGID_6_)">
					<rect y="39.146" fill="#727272" width="580" height="61.999"/>
				</g>
				<g clip-path="url(#SVGID_6_)">
					<rect y="101.145" fill="#333333" width="580" height="61.999"/>
				</g>
				<g clip-path="url(#SVGID_6_)">
					<rect y="163.144" fill="#727272" width="580" height="62.001"/>
				</g>
				<g clip-path="url(#SVGID_6_)">
					<rect y="225.145" fill="#333333" width="580" height="61.999"/>
				</g>
				<g clip-path="url(#SVGID_6_)">
					<rect y="287.145" fill="#727272" width="580" height="61.999"/>
				</g>
				<g clip-path="url(#SVGID_6_)">
					<rect y="349.144" fill="#333333" width="580" height="62"/>
				</g>
				<g clip-path="url(#SVGID_6_)">
					<rect y="411.144" fill="#727272" width="580" height="61.999"/>
				</g>
				<g clip-path="url(#SVGID_6_)">
					<rect y="473.143" fill="#333333" width="580" height="62"/>
				</g>
				<g clip-path="url(#SVGID_6_)">
					<rect y="535.143" fill="#727272" width="580" height="62"/>
				</g>
				<g clip-path="url(#SVGID_6_)">
					<rect y="597.144" fill="#333333" width="580" height="61.999"/>
				</g>
				<g clip-path="url(#SVGID_6_)">
					<rect y="659.142" fill="#727272" width="580" height="45.953"/>
				</g>
			</g>
		</g>
		<g opacity="0.9" clip-path="url(#SVGID_4_)">
			<g>
				<defs>
					<rect id="SVGID_7_" y="-5.348" width="580" height="711.902"/>
				</defs>
				<clipPath id="SVGID_8_">
					<use xlink:href="#SVGID_7_"  overflow="visible"/>
				</clipPath>
				<g clip-path="url(#SVGID_8_)">
					<defs>
						<rect id="SVGID_9_" y="-5.348" width="580" height="711.902"/>
					</defs>
					<clipPath id="SVGID_10_">
						<use xlink:href="#SVGID_9_"  overflow="visible"/>
					</clipPath>
					<g clip-path="url(#SVGID_10_)">
						<g>
							<defs>
								<rect id="SVGID_11_" y="-5.348" width="580" height="711.901"/>
							</defs>
							<clipPath id="SVGID_12_">
								<use xlink:href="#SVGID_11_"  overflow="visible"/>
							</clipPath>
							<rect y="-5.348" clip-path="url(#SVGID_12_)" fill="#231F20" width="580" height="711.902"/>
							<polygon clip-path="url(#SVGID_12_)" fill="#231F20" points="581,350.5 581,-6.348 -1,-6.348 -1,707.555 581,707.555 							
								"/>
							<polygon clip-path="url(#SVGID_12_)" fill="#242021" points="581,350.5 581,-6.348 -1,-6.348 -1,707.555 581,707.555 							
								"/>
							<polygon clip-path="url(#SVGID_12_)" fill="#252122" points="581,350.5 581,-6.348 -1,-6.348 -1,707.555 581,707.555 							
								"/>
							<polygon clip-path="url(#SVGID_12_)" fill="#262223" points="581,350.5 581,-6.348 -1,-6.348 -1,707.555 581,707.555 							
								"/>
							<polygon clip-path="url(#SVGID_12_)" fill="#272324" points="581,350.5 581,-6.348 -1,-6.348 -1,707.555 581,707.555 							
								"/>
							<polygon clip-path="url(#SVGID_12_)" fill="#282425" points="581,350.5 581,-6.348 -1,-6.348 -1,707.555 581,707.555 							
								"/>
							<polygon clip-path="url(#SVGID_12_)" fill="#292526" points="581,350.5 581,-6.348 -1,-6.348 -1,707.555 581,707.555 							
								"/>
							<polygon clip-path="url(#SVGID_12_)" fill="#2A2627" points="581,350.5 581,-6.348 -1,-6.348 -1,707.555 581,707.555 							
								"/>
							<polygon clip-path="url(#SVGID_12_)" fill="#2B2728" points="581,350.5 581,-6.348 -1,-6.348 -1,707.555 581,707.555 							
								"/>
							<polygon clip-path="url(#SVGID_12_)" fill="#2C2829" points="581,350.5 581,-6.348 -1,-6.348 -1,707.555 581,707.555 							
								"/>
							<polygon clip-path="url(#SVGID_12_)" fill="#2D292A" points="581,350.5 581,-6.348 -1,-6.348 -1,707.555 581,707.555 							
								"/>
							<polygon clip-path="url(#SVGID_12_)" fill="#2E2A2B" points="581,350.5 581,-6.348 -1,-6.348 -1,707.555 581,707.555 							
								"/>
							<polygon clip-path="url(#SVGID_12_)" fill="#2F2B2C" points="581,350.5 581,-6.348 -1,-6.348 -1,707.555 581,707.555 							
								"/>
							<polygon clip-path="url(#SVGID_12_)" fill="#302C2D" points="581,350.5 581,-6.348 -1,-6.348 -1,707.555 581,707.555 							
								"/>
							<polygon clip-path="url(#SVGID_12_)" fill="#312D2E" points="581,350.5 581,-6.348 -1,-6.348 -1,707.555 581,707.555 							
								"/>
							<polygon clip-path="url(#SVGID_12_)" fill="#322E2F" points="581,350.5 581,-6.348 -1,-6.348 -1,707.555 581,707.555 							
								"/>
							<polygon clip-path="url(#SVGID_12_)" fill="#332F30" points="581,350.5 581,-6.348 -1,-6.348 -1,707.555 581,707.555 							
								"/>
							<polygon clip-path="url(#SVGID_12_)" fill="#343031" points="581,350.5 581,-6.348 -1,-6.348 -1,707.555 581,707.555 							
								"/>
							<polygon clip-path="url(#SVGID_12_)" fill="#353132" points="581,350.5 581,-6.348 -1,-6.348 -1,707.555 581,707.555 							
								"/>
							<polygon clip-path="url(#SVGID_12_)" fill="#363233" points="581,350.5 581,-6.348 -1,-6.348 -1,707.555 581,707.555 							
								"/>
							<polygon clip-path="url(#SVGID_12_)" fill="#373334" points="581,350.5 581,-6.348 -1,-6.348 -1,707.555 581,707.555 							
								"/>
							<polygon clip-path="url(#SVGID_12_)" fill="#383435" points="581,350.5 581,-6.348 -1,-6.348 -1,707.555 581,707.555 							
								"/>
							<polygon clip-path="url(#SVGID_12_)" fill="#393536" points="581,350.5 581,-6.348 -1,-6.348 -1,707.555 581,707.555 							
								"/>
							<polygon clip-path="url(#SVGID_12_)" fill="#3A3637" points="581,350.5 581,-6.348 -1,-6.348 -1,707.555 581,707.555 							
								"/>
							<polygon clip-path="url(#SVGID_12_)" fill="#3B3738" points="581,350.5 581,-4.707 581,-6.348 -1,-6.348 -1,707.555 
								581,707.555 							"/>
							<path clip-path="url(#SVGID_12_)" fill="#3C3839" d="M581,350.5V-2.93h6.703c-2.379-2.828-4.789-5.621-7.227-8.379v4.961
								H-0.477v-4.961C-2.914-8.551-5.324-5.758-7.703-2.93H-1V703.93h-6.703c2.379,2.828,4.789,5.621,7.227,8.379v-4.754h580.953
								v4.754c2.438-2.758,4.848-5.551,7.227-8.379H581V350.5z"/>
							<path clip-path="url(#SVGID_12_)" fill="#3D393A" d="M581,350.5V-1.156h5.211c-2.371-2.812-4.77-5.59-7.195-8.336v3.145
								H0.984v-3.145C-1.441-6.746-3.84-3.969-6.207-1.156H-1v703.312h-5.207c2.367,2.812,4.766,5.59,7.191,8.336v-2.938h578.031
								v2.938c2.426-2.746,4.824-5.523,7.195-8.336H581V350.5z"/>
							<path clip-path="url(#SVGID_12_)" fill="#3E3A3B" d="M581,350.5V0.621h3.711c-2.355-2.797-4.742-5.562-7.152-8.293v1.324
								H2.441v-1.324c-2.41,2.73-4.797,5.496-7.152,8.293H-1v699.758h-3.711c2.355,2.801,4.742,5.562,7.152,8.293v-1.117h575.117
								v1.117c2.41-2.73,4.797-5.492,7.152-8.293H581V350.5z"/>
							<path clip-path="url(#SVGID_12_)" fill="#3F3B3C" d="M581,350.5V2.398h2.219c-2.348-2.785-4.719-5.535-7.117-8.254
								c-1.203-1.355-2.41-2.707-3.625-4.051v3.559H7.523v-3.559C6.309-8.562,5.102-7.211,3.902-5.855
								C1.5-3.137-0.871-0.387-3.219,2.398H-1v696.203h-2.219c2.348,2.785,4.719,5.539,7.121,8.254
								c1.199,1.359,2.406,2.707,3.621,4.051v-3.352h564.953v3.352c1.215-1.344,2.422-2.691,3.625-4.051
								c2.398-2.715,4.77-5.469,7.117-8.254H581V350.5z"/>
							<path clip-path="url(#SVGID_12_)" fill="#403C3D" d="M581,350.5V4.172h0.719c-4.664-5.539-9.441-10.945-14.328-16.215v5.695
								H12.609v-5.695C7.723-6.773,2.945-1.367-1.719,4.172H-1v692.656h-0.719c4.664,5.539,9.441,10.945,14.328,16.215v-5.488
								h554.781v5.488c4.887-5.27,9.664-10.676,14.328-16.215H581V350.5z"/>
							<path clip-path="url(#SVGID_12_)" fill="#413D3E" d="M581,350.5V160.832V14.312h6.105c-2.266-2.82-4.559-5.609-6.879-8.363
								c-4.645-5.512-9.398-10.891-14.258-16.133v3.836H14.031v-3.836C9.172-4.941,4.418,0.438-0.227,5.949
								c-2.32,2.754-4.613,5.543-6.879,8.363H-1v672.375h-6.105c2.266,2.82,4.559,5.609,6.879,8.363
								c4.645,5.512,9.398,10.891,14.258,16.137v-3.633h551.938v3.633c4.859-5.246,9.613-10.625,14.258-16.137
								c2.32-2.754,4.613-5.543,6.879-8.363H581V350.5z"/>
							<path clip-path="url(#SVGID_12_)" fill="#423E3F" d="M581,350.5V161.812V16.047h4.574c-2.254-2.805-4.535-5.578-6.848-8.32
								c-4.617-5.484-9.344-10.836-14.18-16.051v1.977H15.453v-1.977C10.617-3.109,5.891,2.242,1.273,7.727
								c-2.312,2.742-4.594,5.516-6.844,8.32H-1v668.906h-4.57c2.25,2.805,4.531,5.578,6.844,8.32
								c4.617,5.484,9.344,10.836,14.18,16.051v-1.77h549.094v1.77c4.836-5.215,9.562-10.566,14.18-16.051
								c2.312-2.742,4.594-5.516,6.848-8.32H581V350.5z"/>
							<path clip-path="url(#SVGID_12_)" fill="#433F40" d="M581,350.5V162.789V17.781h3.039c-2.242-2.793-4.508-5.555-6.805-8.281
								c-4.594-5.453-9.301-10.777-14.109-15.969v0.121H16.875v-0.121C12.066-1.277,7.363,4.047,2.766,9.5
								c-2.297,2.727-4.566,5.488-6.805,8.281H-1v665.438h-3.039c2.238,2.793,4.508,5.555,6.805,8.281
								c4.598,5.453,9.301,10.777,14.109,15.965c1.203,1.297,2.41,2.586,3.625,3.867v-3.777h539v3.777
								c1.215-1.281,2.422-2.57,3.625-3.867c4.809-5.188,9.516-10.512,14.109-15.965c2.297-2.727,4.562-5.488,6.805-8.281H581V350.5
								z"/>
							<path clip-path="url(#SVGID_12_)" fill="#444041" d="M581,350.5V163.766V19.512h1.508c-2.227-2.777-4.484-5.52-6.773-8.234
								c-4.57-5.426-9.25-10.723-14.031-15.883c-2.391-2.582-4.812-5.129-7.254-7.645v5.902H25.551v-5.902
								c-2.441,2.516-4.863,5.062-7.254,7.645C13.512,0.555,8.836,5.852,4.266,11.277c-2.289,2.715-4.547,5.457-6.773,8.234H-1
								v661.977h-1.508c2.227,2.777,4.484,5.52,6.773,8.234c4.57,5.426,9.246,10.723,14.031,15.887
								c2.391,2.578,4.812,5.125,7.254,7.641v-5.695h528.898v5.695c2.441-2.516,4.863-5.062,7.254-7.641
								c4.781-5.164,9.461-10.461,14.031-15.887c2.289-2.715,4.547-5.457,6.773-8.234H581V350.5z"/>
							<path clip-path="url(#SVGID_12_)" fill="#454142" d="M581,350.5V164.742V29.625h6.551
								c-4.324-5.648-8.762-11.172-13.309-16.57S565.039,2.387,560.281-2.75c-2.383-2.566-4.785-5.102-7.219-7.602v4.004H26.938
								v-4.004c-2.434,2.5-4.836,5.035-7.219,7.602C14.961,2.387,10.305,7.656,5.758,13.055c-4.543,5.398-8.984,10.922-13.309,16.57
								H-1v641.75h-6.551c4.324,5.648,8.766,11.176,13.309,16.57c4.547,5.398,9.203,10.668,13.961,15.805
								c2.383,2.566,4.785,5.102,7.219,7.602v-3.797h526.125v3.797c2.434-2.5,4.836-5.035,7.219-7.602
								c4.758-5.137,9.414-10.406,13.961-15.805c4.547-5.395,8.984-10.922,13.309-16.57H581V350.5z"/>
							<path clip-path="url(#SVGID_12_)" fill="#464243" d="M581,350.5V165.723V31.316h4.984
								c-4.305-5.621-8.719-11.117-13.242-16.488c-4.52-5.367-9.148-10.609-13.883-15.719c-2.367-2.555-4.762-5.074-7.18-7.562
								v2.105H28.32v-2.105c-2.418,2.488-4.812,5.008-7.18,7.562C16.41,4.219,11.777,9.461,7.258,14.828
								C2.734,20.199-1.68,25.695-5.984,31.316H-1v638.371h-4.984c4.305,5.617,8.719,11.117,13.242,16.484
								c4.52,5.367,9.152,10.609,13.883,15.719c2.367,2.551,4.762,5.07,7.18,7.559v-1.895H551.68v1.895
								c2.418-2.488,4.812-5.008,7.18-7.559c4.734-5.109,9.363-10.352,13.883-15.719c4.523-5.367,8.938-10.867,13.242-16.484H581
								V350.5z"/>
							<path clip-path="url(#SVGID_12_)" fill="#474344" d="M581,350.5V166.699V33.004h3.418
								c-4.281-5.59-8.672-11.059-13.168-16.398c-4.5-5.34-9.105-10.555-13.816-15.637c-2.355-2.539-4.734-5.047-7.141-7.52v0.203
								H29.703v-0.203c-2.402,2.473-4.781,4.98-7.137,7.52C17.855,6.051,13.25,11.266,8.75,16.605
								c-4.496,5.34-8.887,10.809-13.168,16.398H-1v634.992h-3.418c4.281,5.59,8.672,11.059,13.168,16.398
								c4.5,5.34,9.105,10.555,13.816,15.637c2.355,2.539,4.734,5.047,7.137,7.52c1.203,1.238,2.414,2.465,3.629,3.688v-3.684
								h513.332v3.684c1.219-1.223,2.426-2.449,3.629-3.688c2.406-2.473,4.785-4.98,7.141-7.52
								c4.711-5.082,9.316-10.297,13.816-15.637c4.496-5.34,8.887-10.809,13.168-16.398H581V350.5z"/>
							<path clip-path="url(#SVGID_12_)" fill="#484445" d="M581,350.5V167.676V34.695h1.852c-4.258-5.562-8.625-11-13.102-16.312
								c-8.945-10.625-18.324-20.742-28.094-30.316v5.586H38.344v-5.586c-9.77,9.574-19.148,19.691-28.098,30.316
								c-4.473,5.312-8.84,10.75-13.098,16.312H-1v631.609h-1.852c4.258,5.562,8.625,11,13.098,16.312
								c8.949,10.625,18.328,20.742,28.098,30.312v-5.375h503.312v5.375c9.77-9.57,19.148-19.688,28.094-30.312
								c4.477-5.312,8.844-10.75,13.102-16.312H581V350.5z"/>
							<path clip-path="url(#SVGID_12_)" fill="#484546" d="M581,350.5V168.656V36.383h0.289
								c-4.238-5.531-8.582-10.941-13.031-16.227C559.355,9.59,550.031-0.477,540.312-9.996v3.648H39.688v-3.648
								C29.969-0.477,20.645,9.59,11.742,20.156C7.293,25.441,2.949,30.852-1.285,36.383H-1v628.234h-0.285
								c4.234,5.531,8.578,10.941,13.027,16.227c8.902,10.566,18.227,20.633,27.945,30.152v-3.441h500.625v3.441
								c9.719-9.52,19.043-19.586,27.945-30.152c4.449-5.285,8.793-10.695,13.031-16.227H581V350.5z"/>
							<path clip-path="url(#SVGID_12_)" fill="#494647" d="M581,350.5V169.633V46.414h4.957c-2.051-2.812-4.129-5.594-6.234-8.344
								c-4.215-5.5-8.535-10.883-12.961-16.137c-8.855-10.512-18.129-20.52-27.797-29.988v1.707H41.035v-1.707
								c-9.668,9.469-18.941,19.477-27.797,29.988C8.812,27.188,4.492,32.57,0.281,38.07c-2.109,2.75-4.188,5.531-6.234,8.344H-1
								v608.172h-4.953c2.047,2.812,4.125,5.594,6.234,8.344c4.211,5.5,8.531,10.883,12.957,16.137
								c8.855,10.512,18.129,20.52,27.797,29.988v-1.5h497.93v1.5c9.668-9.469,18.941-19.477,27.797-29.988
								c4.426-5.254,8.746-10.637,12.961-16.137c2.105-2.75,4.184-5.531,6.234-8.344H581V350.5z"/>
							<path clip-path="url(#SVGID_12_)" fill="#4A4748" d="M581,350.5V170.609V48.055h3.355c-2.039-2.793-4.105-5.559-6.199-8.293
								c-4.191-5.473-8.488-10.824-12.891-16.051c-8.805-10.453-18.031-20.41-27.648-29.828c-2.402-2.355-4.828-4.676-7.281-6.961
								v6.73H49.664v-6.73c-2.453,2.285-4.883,4.605-7.285,6.961c-9.613,9.418-18.84,19.375-27.645,29.828
								c-4.402,5.227-8.699,10.578-12.891,16.051c-2.094,2.734-4.16,5.5-6.199,8.293H-1v604.891h-3.355
								c2.039,2.797,4.105,5.562,6.199,8.297c4.191,5.469,8.488,10.82,12.891,16.047c8.805,10.457,18.031,20.414,27.645,29.828
								c2.402,2.355,4.832,4.68,7.285,6.965v-6.527h480.672v6.527c2.453-2.285,4.879-4.609,7.281-6.965
								c9.617-9.414,18.844-19.371,27.648-29.828c4.402-5.227,8.699-10.578,12.891-16.047c2.094-2.734,4.16-5.5,6.199-8.297H581
								V350.5z"/>
							<path clip-path="url(#SVGID_12_)" fill="#4B4849" d="M581,350.5V171.586V49.699h1.758c-2.031-2.777-4.086-5.531-6.168-8.25
								c-4.168-5.441-8.441-10.766-12.82-15.965c-8.762-10.398-17.934-20.297-27.496-29.664c-2.391-2.344-4.805-4.652-7.242-6.926
								v4.758H50.969v-4.758c-2.438,2.273-4.852,4.582-7.242,6.926C34.164,5.188,24.988,15.086,16.23,25.484
								c-4.379,5.199-8.652,10.523-12.816,15.965c-2.086,2.719-4.141,5.473-6.168,8.25H-1v601.602h-1.754
								c2.027,2.777,4.082,5.527,6.168,8.25c4.164,5.441,8.438,10.766,12.816,15.965c8.758,10.398,17.934,20.297,27.496,29.664
								c2.391,2.344,4.805,4.648,7.242,6.926v-4.551h478.062v4.551c2.438-2.277,4.852-4.582,7.242-6.926
								c9.562-9.367,18.734-19.266,27.496-29.664c4.379-5.199,8.652-10.523,12.82-15.965c2.082-2.723,4.137-5.473,6.168-8.25H581
								V350.5z"/>
							<path clip-path="url(#SVGID_12_)" fill="#4C494A" d="M581,350.5V172.566V59.723h6.125
								c-7.848-11.285-16.141-22.121-24.852-32.461S544.438,7.074,534.93-2.242c-2.379-2.328-4.781-4.625-7.203-6.887v2.781H52.273
								v-2.781c-2.422,2.262-4.824,4.559-7.203,6.887c-9.508,9.316-18.633,19.164-27.344,29.504S0.723,48.438-7.125,59.723H-1
								v581.551h-6.125c7.848,11.289,16.141,22.125,24.852,32.465s17.836,20.188,27.344,29.504c2.379,2.328,4.781,4.625,7.203,6.887
								v-2.574h475.453v2.574c2.422-2.262,4.824-4.559,7.203-6.887c9.508-9.316,18.633-19.164,27.344-29.504
								s17.004-21.176,24.852-32.465H581V350.5z"/>
							<path clip-path="url(#SVGID_12_)" fill="#4D4A4B" d="M581,350.5V173.543V61.32h4.492c-7.805-11.227-16.055-22-24.715-32.281
								c-8.664-10.285-17.738-20.078-27.195-29.344c-2.363-2.316-4.754-4.602-7.164-6.848v0.805H53.578v-0.805
								c-2.41,2.246-4.797,4.531-7.16,6.848c-9.457,9.266-18.531,19.059-27.195,29.344C10.562,39.32,2.312,50.094-5.492,61.32H-1
								V639.68h-4.492c7.805,11.227,16.055,22,24.715,32.281c8.664,10.285,17.738,20.078,27.195,29.344
								c2.363,2.316,4.75,4.602,7.16,6.852v-0.602h472.84v0.602c2.41-2.25,4.801-4.535,7.164-6.852
								c9.457-9.266,18.531-19.059,27.195-29.344c8.66-10.281,16.91-21.055,24.715-32.281H581V350.5z"/>
							<path clip-path="url(#SVGID_12_)" fill="#4E4B4C" d="M581,350.5V174.52V62.922h2.859
								c-7.762-11.168-15.965-21.883-24.578-32.109c-8.617-10.227-17.641-19.965-27.047-29.18
								c-4.699-4.605-9.496-9.082-14.383-13.422v5.441H62.148v-5.441c-4.887,4.34-9.684,8.816-14.387,13.422
								c-9.402,9.215-18.426,18.953-27.043,29.18C12.105,41.039,3.902,51.754-3.859,62.922H-1v575.156h-2.859
								c7.762,11.164,15.965,21.883,24.578,32.109c8.617,10.227,17.641,19.965,27.043,29.18c4.703,4.605,9.5,9.082,14.387,13.422
								v-5.234h455.703v5.234c4.887-4.34,9.684-8.816,14.383-13.422c9.406-9.215,18.43-18.953,27.047-29.18
								c8.613-10.227,16.816-20.945,24.578-32.109H581V350.5z"/>
							<path clip-path="url(#SVGID_12_)" fill="#4F4C4D" d="M581,350.5v-175V64.516h1.227
								c-7.719-11.102-15.875-21.758-24.441-31.926s-17.543-19.855-26.895-29.02c-4.676-4.578-9.445-9.031-14.305-13.344v3.426
								H63.414v-3.426C58.555-5.461,53.785-1.008,49.109,3.57c-9.352,9.164-18.328,18.852-26.895,29.02S5.492,53.414-2.227,64.516
								H-1v571.969h-1.227c7.719,11.102,15.875,21.758,24.441,31.926s17.543,19.855,26.895,29.02
								c4.676,4.578,9.445,9.031,14.305,13.344v-3.219h453.172v3.219c4.859-4.312,9.629-8.766,14.305-13.344
								c9.352-9.164,18.328-18.852,26.895-29.02s16.723-20.824,24.441-31.926H581V350.5z"/>
							<path clip-path="url(#SVGID_12_)" fill="#504D4E" d="M581,350.5V176.477v-102h5.266c-1.859-2.812-3.75-5.602-5.672-8.363
								c-7.672-11.039-15.785-21.637-24.305-31.746c-8.52-10.113-17.445-19.746-26.742-28.855
								c-4.648-4.559-9.395-8.98-14.227-13.273v1.414H64.68v-1.414c-4.832,4.293-9.574,8.715-14.227,13.273
								c-9.297,9.109-18.223,18.742-26.742,28.855C15.191,44.477,7.078,55.074-0.594,66.113c-1.918,2.762-3.812,5.551-5.672,8.363
								H-1v552.047h-5.266c1.859,2.812,3.754,5.602,5.672,8.363c7.672,11.039,15.785,21.637,24.305,31.746
								c8.52,10.113,17.445,19.742,26.742,28.855c4.652,4.555,9.395,8.98,14.227,13.273v-1.207H515.32v1.207
								c4.832-4.293,9.578-8.719,14.227-13.273c9.297-9.113,18.223-18.742,26.742-28.855c8.52-10.109,16.633-20.707,24.305-31.746
								c1.922-2.762,3.812-5.551,5.672-8.363H581V350.5z"/>
							<path clip-path="url(#SVGID_12_)" fill="#514E4F" d="M581,350.5V177.453V76.027h3.602c-1.852-2.801-3.734-5.57-5.641-8.316
								c-7.633-10.977-15.695-21.512-24.168-31.57c-8.473-10.055-17.348-19.633-26.594-28.691
								c-4.621-4.531-9.34-8.934-14.145-13.199c-2.406-2.133-4.828-4.234-7.277-6.301v5.703H73.223v-5.703
								c-2.449,2.066-4.871,4.168-7.277,6.301c-4.805,4.266-9.52,8.668-14.145,13.199c-9.246,9.059-18.121,18.637-26.594,28.691
								C16.734,46.199,8.668,56.734,1.039,67.711c-1.91,2.746-3.789,5.516-5.641,8.316H-1v548.941h-3.602
								c1.852,2.801,3.73,5.574,5.641,8.32c7.629,10.977,15.695,21.512,24.168,31.57c8.473,10.055,17.348,19.633,26.594,28.691
								c4.625,4.531,9.34,8.934,14.145,13.199c2.406,2.133,4.828,4.234,7.277,6.297v-5.492h433.555v5.492
								c2.449-2.062,4.871-4.164,7.277-6.297c4.805-4.266,9.523-8.668,14.145-13.199c9.246-9.059,18.121-18.637,26.594-28.691
								c8.473-10.059,16.535-20.594,24.168-31.57c1.906-2.746,3.789-5.52,5.641-8.32H581V350.5z"/>
							<path clip-path="url(#SVGID_12_)" fill="#524F50" d="M581,350.5V178.43V77.578h1.938c-1.84-2.781-3.711-5.539-5.609-8.27
								c-7.586-10.914-15.609-21.391-24.031-31.391s-17.25-19.523-26.445-28.531c-4.594-4.504-9.285-8.883-14.062-13.125
								c-2.391-2.121-4.801-4.207-7.234-6.262v3.652H74.445V-10c-2.43,2.055-4.844,4.141-7.234,6.262
								c-4.777,4.242-9.469,8.621-14.062,13.125c-9.195,9.008-18.023,18.531-26.445,28.531S10.258,58.395,2.672,69.309
								c-1.898,2.73-3.77,5.488-5.609,8.27H-1v545.844h-1.938c1.84,2.781,3.711,5.539,5.609,8.266
								c7.586,10.918,15.609,21.395,24.031,31.395s17.25,19.523,26.445,28.531c4.594,4.504,9.285,8.879,14.062,13.121
								c2.391,2.125,4.805,4.211,7.234,6.266v-3.445h431.109V711c2.434-2.055,4.844-4.141,7.234-6.266
								c4.777-4.242,9.469-8.617,14.062-13.121c9.195-9.008,18.023-18.531,26.445-28.531s16.445-20.477,24.031-31.395
								c1.898-2.727,3.77-5.484,5.609-8.266H581V350.5z"/>
							<path clip-path="url(#SVGID_12_)" fill="#535051" d="M581,350.5V179.41V87.512h5.688
								c-3.555-5.641-7.219-11.176-10.992-16.605c-7.543-10.852-15.52-21.27-23.895-31.211
								c-8.375-9.945-17.148-19.414-26.293-28.371c-4.57-4.48-9.234-8.828-13.984-13.047c-2.379-2.109-4.773-4.188-7.195-6.23v1.605
								H75.672v-1.605c-2.418,2.043-4.816,4.121-7.195,6.23c-4.75,4.219-9.414,8.566-13.984,13.047
								c-9.141,8.957-17.918,18.426-26.293,28.371c-8.375,9.941-16.352,20.359-23.895,31.211
								c-3.773,5.43-7.438,10.965-10.992,16.605H-1v525.977h-5.688c3.555,5.641,7.219,11.176,10.992,16.605
								c7.543,10.852,15.52,21.27,23.895,31.211c8.375,9.945,17.152,19.414,26.293,28.371c4.57,4.48,9.234,8.832,13.984,13.051
								c2.379,2.109,4.777,4.184,7.195,6.227v-1.398h428.656v1.398c2.422-2.043,4.816-4.117,7.195-6.227
								c4.75-4.219,9.414-8.57,13.984-13.051c9.145-8.957,17.918-18.426,26.293-28.371c8.375-9.941,16.352-20.359,23.895-31.211
								c3.773-5.43,7.438-10.965,10.992-16.605H581V350.5z"/>
							<path clip-path="url(#SVGID_12_)" fill="#545152" d="M581,350.5V180.387V89.016h3.992
								c-3.531-5.609-7.176-11.113-10.93-16.512c-7.5-10.793-15.43-21.148-23.758-31.035c-16.656-19.77-34.898-37.656-54.48-53.363
								v5.547H84.18v-5.547C64.594,3.812,46.352,21.699,29.695,41.469c-8.328,9.887-16.258,20.242-23.758,31.035
								c-3.754,5.398-7.398,10.902-10.93,16.512H-1v522.969h-3.992c3.531,5.609,7.176,11.113,10.93,16.508
								c7.5,10.797,15.43,21.152,23.758,31.039c16.656,19.773,34.898,37.656,54.484,53.367v-5.344h411.645v5.344
								c19.582-15.711,37.824-33.594,54.48-53.367c8.328-9.887,16.258-20.242,23.758-31.039c3.754-5.395,7.398-10.898,10.93-16.508
								H581V350.5z"/>
							<path clip-path="url(#SVGID_12_)" fill="#555253" d="M581,350.5V181.363V90.52h2.297
								c-3.512-5.578-7.137-11.051-10.867-16.418c-7.457-10.727-15.344-21.027-23.621-30.855
								c-16.559-19.66-34.695-37.441-54.168-53.059v3.465H85.359v-3.465C65.887,5.805,47.75,23.586,31.191,43.246
								C22.914,53.074,15.027,63.375,7.57,74.102C3.84,79.469,0.215,84.941-3.297,90.52H-1V610.48h-2.297
								c3.512,5.578,7.137,11.051,10.867,16.418c7.457,10.727,15.344,21.027,23.621,30.855
								c16.559,19.66,34.695,37.441,54.168,53.059v-3.258h409.281v3.258c19.473-15.617,37.609-33.398,54.168-53.059
								c8.277-9.828,16.164-20.129,23.621-30.855c3.73-5.367,7.355-10.84,10.867-16.418H581V350.5z"/>
							<path clip-path="url(#SVGID_12_)" fill="#565354" d="M581,350.5V182.34V92.02h0.602c-3.492-5.543-7.094-10.984-10.805-16.32
								c-7.414-10.668-15.254-20.906-23.484-30.676C530.852,25.477,512.816,7.797,493.457-7.73v1.383H86.543V-7.73
								C67.184,7.797,49.148,25.477,32.688,45.023c-8.23,9.77-16.07,20.008-23.484,30.676C5.492,81.035,1.891,86.477-1.602,92.02H-1
								v516.957h-0.602c3.492,5.547,7.094,10.988,10.805,16.32c7.414,10.672,15.254,20.91,23.484,30.68
								c16.461,19.547,34.496,37.227,53.855,52.754v-1.176h406.914v1.176c19.359-15.527,37.395-33.207,53.855-52.754
								c8.23-9.77,16.07-20.008,23.484-30.68c3.711-5.332,7.312-10.773,10.805-16.32H581V350.5z"/>
							<path clip-path="url(#SVGID_12_)" fill="#575455" d="M581,350.5V183.32v-81.453h4.031c-1.68-2.805-3.391-5.586-5.125-8.344
								c-3.473-5.512-7.055-10.922-10.742-16.227c-7.371-10.605-15.164-20.781-23.348-30.5
								c-16.367-19.43-34.293-37.008-53.543-52.445c-2.406-1.93-4.832-3.824-7.277-5.688v4.988H95.004v-4.988
								c-2.445,1.863-4.871,3.758-7.277,5.688C68.48,9.789,50.551,27.367,34.184,46.797C26,56.516,18.207,66.691,10.836,77.297
								c-3.688,5.305-7.27,10.715-10.742,16.227c-1.734,2.758-3.445,5.539-5.125,8.344H-1v497.266h-4.031
								c1.68,2.805,3.391,5.586,5.125,8.344c3.473,5.512,7.055,10.922,10.742,16.227c7.371,10.605,15.164,20.785,23.348,30.5
								c16.367,19.43,34.297,37.008,53.543,52.445c2.406,1.93,4.832,3.828,7.277,5.688v-4.781h389.992v4.781
								c2.445-1.859,4.871-3.758,7.277-5.688c19.25-15.438,37.176-33.016,53.543-52.445c8.184-9.715,15.977-19.895,23.348-30.5
								c3.688-5.305,7.27-10.715,10.742-16.227c1.734-2.758,3.445-5.539,5.125-8.344H581V350.5z"/>
							<path clip-path="url(#SVGID_12_)" fill="#585556" d="M581,350.5V184.297V103.32h2.309c-1.672-2.789-3.371-5.555-5.098-8.293
								c-3.453-5.48-7.012-10.859-10.68-16.129c-7.328-10.547-15.074-20.664-23.211-30.324
								c-16.273-19.316-34.094-36.793-53.227-52.141c-2.395-1.918-4.805-3.801-7.238-5.652v2.871H96.145v-2.871
								c-2.434,1.852-4.844,3.734-7.234,5.652C69.773,11.781,51.953,29.258,35.68,48.574c-8.137,9.66-15.883,19.777-23.215,30.324
								c-3.664,5.27-7.223,10.648-10.676,16.129c-1.727,2.738-3.426,5.504-5.098,8.293H-1V597.68h-2.309
								c1.672,2.789,3.371,5.555,5.098,8.297c3.453,5.477,7.012,10.855,10.676,16.129c7.332,10.543,15.078,20.66,23.215,30.32
								c16.273,19.316,34.094,36.793,53.23,52.141c2.391,1.918,4.801,3.801,7.234,5.652v-2.664h387.711v2.664
								c2.434-1.852,4.844-3.734,7.238-5.652c19.133-15.348,36.953-32.824,53.227-52.141c8.137-9.66,15.883-19.777,23.211-30.32
								c3.668-5.273,7.227-10.652,10.68-16.129c1.727-2.742,3.426-5.508,5.098-8.297H581V350.5z"/>
							<path clip-path="url(#SVGID_12_)" fill="#595657" d="M581,350.5V185.273v-72.102h5.484
								C573.633,90.59,559,69.555,542.824,50.352S508.93,13.773,489.906-1.484c-4.754-3.812-9.59-7.492-14.508-11.039v6.176H104.598
								v-6.176c-4.914,3.547-9.75,7.227-14.504,11.039C71.07,13.773,53.352,31.148,37.176,50.352S6.367,90.59-6.484,113.172H-1
								v474.656h-5.484C6.367,610.41,21,631.445,37.176,650.648s33.895,36.578,52.918,51.836c4.754,3.812,9.59,7.492,14.504,11.039
								v-5.969h370.801v5.969c4.918-3.547,9.754-7.227,14.508-11.039c19.023-15.258,36.742-32.633,52.918-51.836
								s30.809-40.238,43.66-62.82H581V350.5z"/>
							<path clip-path="url(#SVGID_12_)" fill="#5A5758" d="M581,350.5V186.25v-71.676h3.73
								c-12.777-22.449-27.324-43.359-43.402-62.449s-33.695-36.359-52.602-51.523c-4.727-3.793-9.539-7.453-14.422-10.977v4.027
								H105.695v-4.027C100.809-6.852,96-3.191,91.273,0.602C72.367,15.766,54.75,33.035,38.672,52.125
								c-16.082,19.09-30.629,40-43.402,62.449H-1v471.848h-3.73c12.773,22.453,27.32,43.359,43.402,62.453
								c16.078,19.09,33.695,36.359,52.602,51.523c4.727,3.793,9.535,7.453,14.422,10.977v-3.82h368.609v3.82
								c4.883-3.523,9.695-7.184,14.422-10.977c18.906-15.164,36.523-32.434,52.602-51.523c16.078-19.094,30.625-40,43.402-62.453
								H581V350.5z"/>
							<path clip-path="url(#SVGID_12_)" fill="#5B5859" d="M581,350.5V187.23v-71.25h1.977
								c-12.699-22.316-27.16-43.102-43.145-62.078S506.34,17.758,487.543,2.684c-4.699-3.77-9.48-7.406-14.336-10.91v1.879H106.793
								v-1.879c-4.855,3.504-9.637,7.141-14.336,10.91C73.66,17.758,56.152,34.926,40.168,53.902S9.723,93.664-2.977,115.98H-1
								V585.02h-1.977c12.699,22.316,27.16,43.102,43.145,62.078s33.492,36.145,52.289,51.219c4.699,3.77,9.48,7.406,14.336,10.91
								v-1.672h366.414v1.672c4.855-3.504,9.637-7.141,14.336-10.91c18.797-15.074,36.305-32.242,52.289-51.219
								s30.445-39.762,43.145-62.078H581V350.5z"/>
							<path clip-path="url(#SVGID_12_)" fill="#5C595A" d="M581,350.5V188.207v-70.824h0.219
								c-12.621-22.18-26.992-42.844-42.883-61.703c-15.891-18.863-33.293-35.93-51.977-50.914
								c-4.672-3.746-9.422-7.363-14.25-10.844c-2.414-1.742-4.844-3.449-7.297-5.125v4.855H115.188v-4.855
								c-2.453,1.676-4.883,3.383-7.297,5.125c-4.828,3.48-9.578,7.098-14.25,10.844C74.957,19.75,57.551,36.816,41.664,55.68
								C25.773,74.539,11.402,95.203-1.223,117.383H-1v466.234h-0.223c12.625,22.18,26.996,42.844,42.887,61.703
								c15.887,18.867,33.293,35.93,51.977,50.914c4.672,3.746,9.422,7.363,14.25,10.844c2.414,1.742,4.844,3.449,7.297,5.125
								v-4.648h349.625v4.648c2.453-1.676,4.883-3.383,7.297-5.125c4.828-3.48,9.578-7.098,14.25-10.844
								c18.684-14.984,36.086-32.047,51.977-50.914c15.891-18.859,30.262-39.523,42.883-61.703H581V350.5z"/>
							<path clip-path="url(#SVGID_12_)" fill="#5D5A5B" d="M581,350.5V189.188v-62.062h3.09c-1.512-2.801-3.055-5.578-4.621-8.336
								c-12.547-22.047-26.836-42.586-42.629-61.336s-33.09-35.711-51.664-50.605c-4.645-3.723-9.363-7.316-14.164-10.777
								c-2.398-1.734-4.816-3.43-7.254-5.094v2.676H116.242v-2.676c-2.438,1.664-4.855,3.359-7.254,5.094
								c-4.801,3.461-9.523,7.055-14.164,10.777C76.25,21.742,58.953,38.703,43.16,57.453S13.078,96.742,0.531,118.789
								c-1.566,2.758-3.109,5.535-4.621,8.336H-1v446.75h-3.09c1.512,2.801,3.055,5.578,4.621,8.336
								c12.547,22.047,26.836,42.586,42.629,61.336s33.09,35.711,51.664,50.605c4.641,3.723,9.363,7.316,14.164,10.777
								c2.398,1.734,4.816,3.43,7.254,5.094v-2.469h347.516v2.469c2.438-1.664,4.855-3.359,7.254-5.094
								c4.801-3.461,9.52-7.055,14.164-10.777c18.574-14.895,35.871-31.855,51.664-50.605s30.082-39.289,42.629-61.336
								c1.566-2.758,3.109-5.535,4.621-8.336H581V350.5z"/>
							<path clip-path="url(#SVGID_12_)" fill="#5E5B5C" d="M581,350.5V190.164v-53.258h5.738
								c-2.898-5.664-5.91-11.234-9.027-16.715c-12.469-21.914-26.672-42.324-42.367-60.961S502.453,23.734,483.992,8.93
								c-9.227-7.398-18.773-14.289-28.609-20.633v5.355h-330.77v-5.355C114.781-5.359,105.234,1.531,96.008,8.93
								C77.547,23.734,60.352,40.594,44.656,59.23C28.957,77.867,14.758,98.277,2.289,120.191
								c-3.121,5.48-6.129,11.051-9.027,16.715H-1v427.188h-5.738c2.898,5.664,5.906,11.234,9.027,16.711
								c12.469,21.914,26.668,42.328,42.367,60.965c15.695,18.637,32.891,35.496,51.352,50.301
								c9.227,7.398,18.773,14.289,28.605,20.633v-5.148h330.77v5.148c9.836-6.344,19.383-13.234,28.609-20.633
								c18.461-14.805,35.656-31.664,51.352-50.301s29.898-39.051,42.367-60.965c3.117-5.477,6.129-11.047,9.027-16.711H581V350.5z"
								/>
							<path clip-path="url(#SVGID_12_)" fill="#5F5C5D" d="M581,350.5V191.141v-52.934h3.926
								c-2.879-5.625-5.871-11.164-8.969-16.609c-12.395-21.781-26.508-42.07-42.109-60.59
								c-15.602-18.523-32.691-35.281-51.035-49.992c-9.176-7.359-18.664-14.207-28.434-20.508v3.145H125.621v-3.145
								c-9.77,6.301-19.258,13.148-28.434,20.508C78.844,25.727,61.754,42.484,46.152,61.008
								c-15.602,18.52-29.715,38.809-42.109,60.59c-3.098,5.445-6.09,10.984-8.973,16.609H-1v424.582h-3.93
								c2.883,5.629,5.875,11.168,8.973,16.613c12.395,21.781,26.508,42.07,42.109,60.59c15.602,18.523,32.691,35.281,51.035,49.992
								c9.176,7.359,18.664,14.207,28.434,20.508v-2.938h328.758v2.938c9.77-6.301,19.258-13.148,28.434-20.508
								c18.344-14.711,35.434-31.469,51.035-49.992c15.602-18.52,29.715-38.809,42.109-60.59c3.098-5.445,6.09-10.984,8.969-16.613
								H581V350.5z"/>
							<path clip-path="url(#SVGID_12_)" fill="#605D5E" d="M581,350.5V192.117v-52.605h2.117
								c-2.859-5.594-5.836-11.098-8.914-16.512c-12.32-21.645-26.344-41.809-41.852-60.219
								c-15.504-18.406-32.492-35.059-50.723-49.684c-9.117-7.312-18.547-14.117-28.262-20.383v0.938H126.629v-0.938
								c-9.711,6.266-19.141,13.07-28.258,20.383C80.137,27.723,63.152,44.375,47.648,62.781
								C32.141,81.191,18.113,101.355,5.797,123c-3.078,5.414-6.055,10.918-8.914,16.512H-1v421.98h-2.117
								c2.859,5.59,5.836,11.094,8.914,16.508c12.316,21.648,26.344,41.812,41.852,60.219
								c15.504,18.406,32.488,35.062,50.723,49.684c9.117,7.312,18.547,14.117,28.258,20.383v-0.73h326.738v0.73
								c9.715-6.266,19.145-13.07,28.262-20.383c18.23-14.621,35.219-31.277,50.723-49.684
								c15.508-18.406,29.531-38.57,41.852-60.219c3.078-5.414,6.055-10.918,8.914-16.508H581V350.5z"/>
							<path clip-path="url(#SVGID_12_)" fill="#615E5F" d="M581,350.5V193.098v-52.285h0.309
								c-2.844-5.559-5.801-11.027-8.859-16.406c-12.242-21.512-26.184-41.555-41.594-59.848s-32.289-34.844-50.41-49.379
								c-9.062-7.266-18.43-14.031-28.086-20.258c-2.41-1.555-4.844-3.078-7.289-4.566v3.297H134.93v-3.297
								c-2.445,1.488-4.875,3.012-7.289,4.566c-9.656,6.227-19.023,12.992-28.086,20.258c-18.121,14.535-35,31.086-50.41,49.379
								s-29.352,38.336-41.594,59.848c-3.059,5.379-6.016,10.848-8.859,16.406H-1v419.375h-0.309
								c2.844,5.555,5.801,11.027,8.859,16.406c12.242,21.516,26.184,41.555,41.594,59.848s32.289,34.844,50.41,49.379
								c9.062,7.266,18.43,14.031,28.086,20.258c2.414,1.555,4.844,3.078,7.289,4.566v-3.09H445.07v3.09
								c2.445-1.488,4.879-3.012,7.289-4.566c9.656-6.227,19.023-12.992,28.086-20.258c18.121-14.535,35-31.086,50.41-49.379
								s29.352-38.332,41.594-59.848c3.059-5.379,6.016-10.852,8.859-16.406H581V350.5z"/>
							<path clip-path="url(#SVGID_12_)" fill="#625F60" d="M581,350.5V194.074v-35.129h6.652
								c-5.211-11.391-10.871-22.445-16.957-33.137c-12.164-21.379-26.02-41.293-41.336-59.473
								c-15.312-18.184-32.086-34.629-50.098-49.074c-9.004-7.223-18.316-13.941-27.91-20.129
								c-4.797-3.094-9.664-6.055-14.594-8.875v5.395H143.242v-5.395c-4.93,2.82-9.797,5.781-14.594,8.875
								c-9.594,6.188-18.906,12.906-27.91,20.129C82.73,31.707,65.953,48.152,50.641,66.336
								c-15.316,18.18-29.168,38.094-41.336,59.473C3.223,136.5-2.441,147.555-7.652,158.945H-1v383.109h-6.652
								c5.211,11.391,10.875,22.445,16.957,33.133c12.168,21.383,26.02,41.297,41.336,59.477
								c15.312,18.184,32.09,34.633,50.098,49.074c9.004,7.223,18.316,13.941,27.91,20.129c4.797,3.094,9.664,6.055,14.594,8.875
								v-5.188h293.516v5.188c4.93-2.82,9.797-5.781,14.594-8.875c9.594-6.188,18.906-12.906,27.91-20.129
								c18.012-14.441,34.785-30.891,50.098-49.074c15.316-18.18,29.172-38.094,41.336-59.477
								c6.086-10.688,11.746-21.742,16.957-33.133H581V350.5z"/>
							<path clip-path="url(#SVGID_12_)" fill="#636061" d="M581,350.5V195.051v-34.91h4.789
								c-5.18-11.316-10.805-22.305-16.852-32.926c-12.086-21.246-25.855-41.035-41.074-59.105
								c-15.219-18.066-31.887-34.41-49.785-48.766c-8.945-7.176-18.203-13.855-27.734-20.004
								c-4.766-3.074-9.602-6.012-14.504-8.816v3.129H144.16v-3.129c-4.902,2.805-9.738,5.742-14.504,8.816
								c-9.531,6.148-18.789,12.828-27.734,20.004C84.023,33.699,67.355,50.043,52.137,68.109
								c-15.219,18.07-28.988,37.859-41.078,59.105c-6.043,10.621-11.672,21.609-16.848,32.926H-1v380.719h-4.789
								c5.176,11.316,10.805,22.305,16.848,32.926c12.09,21.246,25.859,41.035,41.078,59.105
								c15.219,18.066,31.887,34.41,49.785,48.766c8.945,7.176,18.203,13.852,27.734,20c4.766,3.078,9.602,6.016,14.504,8.82v-2.922
								h291.68v2.922c4.902-2.805,9.738-5.742,14.504-8.82c9.531-6.148,18.789-12.824,27.734-20
								c17.898-14.355,34.566-30.699,49.785-48.766c15.219-18.07,28.988-37.859,41.074-59.105
								c6.047-10.621,11.672-21.609,16.852-32.926H581V350.5z"/>
							<path clip-path="url(#SVGID_12_)" fill="#646162" d="M581,350.5V196.031V161.34h2.93
								c-5.145-11.246-10.734-22.164-16.742-32.723c-12.016-21.109-25.695-40.777-40.82-58.73
								c-15.121-17.953-31.688-34.195-49.469-48.457c-8.895-7.133-18.09-13.77-27.562-19.879c-4.734-3.055-9.543-5.977-14.414-8.766
								v0.867H145.078v-0.867c-4.871,2.789-9.68,5.711-14.414,8.766c-9.473,6.109-18.668,12.746-27.562,19.879
								C85.32,35.691,68.754,51.934,53.633,69.887c-15.125,17.953-28.805,37.621-40.82,58.73
								C6.805,139.176,1.215,150.094-3.93,161.34H-1v378.32h-2.93c5.145,11.246,10.734,22.164,16.742,32.719
								c12.016,21.113,25.695,40.781,40.82,58.734c15.121,17.953,31.688,34.195,49.469,48.457
								c8.895,7.133,18.09,13.773,27.562,19.883c4.734,3.055,9.543,5.977,14.414,8.762v-0.66h289.844v0.66
								c4.871-2.785,9.68-5.707,14.414-8.762c9.473-6.109,18.668-12.75,27.562-19.883c17.781-14.262,34.348-30.504,49.469-48.457
								c15.125-17.953,28.805-37.621,40.82-58.734c6.008-10.555,11.598-21.473,16.742-32.719H581V350.5z"/>
							<path clip-path="url(#SVGID_12_)" fill="#656263" d="M581,350.5V197.008v-34.473h1.07
								c-5.113-11.176-10.672-22.023-16.641-32.512c-11.938-20.98-25.531-40.52-40.559-58.359
								c-30.055-35.68-65.84-64.555-105.582-84.512v6.5H160.707v-6.5C120.969,7.109,85.18,35.984,55.129,71.664
								c-15.027,17.84-28.621,37.379-40.559,58.359C8.598,140.512,3.043,151.359-2.07,162.535H-1v375.93h-1.07
								c5.113,11.176,10.668,22.023,16.641,32.512c11.938,20.98,25.531,40.523,40.559,58.359
								c30.051,35.68,65.84,64.555,105.578,84.512v-6.293h258.582v6.293c39.742-19.957,75.527-48.832,105.582-84.512
								c15.027-17.836,28.621-37.379,40.559-58.359c5.969-10.488,11.527-21.336,16.641-32.512H581V350.5z"/>
							<path clip-path="url(#SVGID_12_)" fill="#666364" d="M581,350.5V197.984v-17.355h6.5c-2.32-5.711-4.75-11.344-7.289-16.895
								c-5.082-11.105-10.602-21.883-16.531-32.309c-11.863-20.844-25.371-40.262-40.305-57.988
								c-29.859-35.453-65.422-64.141-104.906-83.969v4.184H161.531v-4.184C122.047,9.297,86.484,37.984,56.625,73.438
								c-14.934,17.727-28.441,37.145-40.305,57.988c-5.93,10.426-11.449,21.203-16.531,32.309
								c-2.539,5.551-4.969,11.184-7.289,16.895H-1v339.742h-6.5c2.32,5.711,4.75,11.344,7.289,16.895
								c5.082,11.102,10.602,21.883,16.531,32.305c11.863,20.848,25.371,40.266,40.305,57.992
								c29.859,35.453,65.422,64.141,104.906,83.969v-3.977h256.938v3.977c39.484-19.828,75.047-48.516,104.906-83.969
								c14.934-17.727,28.441-37.145,40.305-57.992c5.93-10.422,11.449-21.203,16.531-32.305c2.539-5.551,4.969-11.184,7.289-16.895
								H581V350.5z"/>
							<path clip-path="url(#SVGID_12_)" fill="#676465" d="M581,350.5V198.961v-17.242h4.59
								c-2.301-5.676-4.715-11.273-7.238-16.789c-5.051-11.031-10.535-21.742-16.43-32.098
								c-11.785-20.711-25.203-40.004-40.039-57.617C492.211,39.988,456.875,11.48,417.645-8.219v1.871H162.355v-1.871
								C123.121,11.48,87.789,39.988,58.121,75.215c-14.836,17.613-28.258,36.906-40.043,57.617
								c-5.895,10.355-11.379,21.066-16.426,32.098c-2.527,5.516-4.941,11.113-7.242,16.789H-1v337.562h-4.59
								c2.301,5.676,4.715,11.273,7.242,16.789c5.047,11.031,10.531,21.742,16.426,32.098
								c11.785,20.711,25.207,40.004,40.043,57.617c29.668,35.227,65,63.734,104.234,83.434v-1.664h255.289v1.664
								c39.23-19.699,74.566-48.207,104.238-83.434c14.836-17.613,28.254-36.906,40.039-57.617
								c5.895-10.355,11.379-21.066,16.43-32.098c2.523-5.516,4.938-11.113,7.238-16.789H581V350.5z"/>
							<path clip-path="url(#SVGID_12_)" fill="#686566" d="M581,350.5V199.938v-17.133h2.684
								c-2.289-5.637-4.688-11.195-7.195-16.676c-5.016-10.961-10.465-21.605-16.32-31.895
								c-11.707-20.578-25.043-39.746-39.785-57.242c-29.477-35-64.582-63.324-103.562-82.898
								c-4.871-2.445-9.805-4.754-14.797-6.922v6.48H177.977v-6.48c-4.992,2.168-9.926,4.477-14.797,6.922
								c-38.98,19.574-74.086,47.898-103.562,82.898c-14.742,17.496-28.074,36.664-39.785,57.242
								c-5.855,10.289-11.305,20.934-16.32,31.895c-2.508,5.48-4.906,11.039-7.195,16.676H-1v335.391h-2.684
								c2.289,5.637,4.688,11.195,7.195,16.68c5.016,10.961,10.465,21.602,16.32,31.891c11.711,20.578,25.043,39.746,39.785,57.242
								c29.477,35,64.582,63.324,103.562,82.898c4.871,2.445,9.805,4.754,14.797,6.922v-6.273h224.047v6.273
								c4.992-2.168,9.926-4.477,14.797-6.922c38.98-19.574,74.086-47.898,103.562-82.898
								c14.742-17.496,28.078-36.664,39.785-57.242c5.855-10.289,11.305-20.93,16.32-31.891c2.508-5.484,4.906-11.043,7.195-16.68
								H581V350.5z"/>
							<path clip-path="url(#SVGID_12_)" fill="#696667" d="M581,350.5V200.918v-17.023h0.777
								c-2.273-5.598-4.656-11.125-7.148-16.57c-4.98-10.891-10.395-21.461-16.215-31.684
								c-11.633-20.445-24.883-39.488-39.523-56.875C489.602,43.996,454.727,15.855,416-3.59c-4.844-2.43-9.742-4.727-14.703-6.879
								v4.121H178.703v-4.121c-4.961,2.152-9.859,4.449-14.699,6.879C125.277,15.855,90.398,43.996,61.109,78.766
								c-14.641,17.387-27.891,36.43-39.523,56.875c-5.82,10.223-11.23,20.793-16.215,31.684c-2.492,5.445-4.875,10.973-7.148,16.57
								H-1v333.211h-0.777c2.273,5.598,4.656,11.125,7.148,16.57c4.984,10.891,10.395,21.465,16.215,31.684
								c11.633,20.445,24.883,39.488,39.523,56.875c29.289,34.773,64.168,62.91,102.895,82.355c4.84,2.43,9.738,4.727,14.699,6.879
								v-3.914h222.594v3.914c4.961-2.152,9.859-4.449,14.703-6.879c38.727-19.445,73.602-47.582,102.891-82.355
								c14.641-17.387,27.891-36.43,39.523-56.875c5.82-10.219,11.234-20.793,16.215-31.684c2.492-5.445,4.875-10.973,7.148-16.57
								H581V350.5z"/>
							<path clip-path="url(#SVGID_12_)" fill="#6A6768" d="M581,350.5V201.895h5.309c-16.27-45.676-39.816-86.809-68.918-121.352
								C488.297,46,453.648,18.043,415.172-1.273c-4.805-2.418-9.676-4.695-14.602-6.836v1.762H179.43v-1.762
								c-4.926,2.141-9.793,4.418-14.602,6.836C126.352,18.043,91.703,46,62.609,80.543C33.512,115.086,9.965,156.219-6.309,201.895
								H-1v297.211h-5.309c16.273,45.676,39.82,86.809,68.918,121.352c29.094,34.543,63.742,62.5,102.219,81.816
								c4.809,2.418,9.676,4.695,14.602,6.836v-1.555H400.57v1.555c4.926-2.141,9.797-4.418,14.602-6.836
								c38.477-19.316,73.125-47.273,102.219-81.816c29.102-34.543,52.648-75.676,68.918-121.352H581V350.5z"/>
							<path clip-path="url(#SVGID_12_)" fill="#6B6869" d="M581,350.5V202.871h3.359c-16.164-45.371-39.555-86.234-68.461-120.551
								C486.992,48,452.57,20.23,414.352,1.039C404.797-3.758,395-8.02,385-11.715v5.367H195v-5.367
								c-10.004,3.695-19.797,7.957-29.352,12.754C127.43,20.23,93.008,48,64.102,82.32C35.195,116.637,11.805,157.5-4.359,202.871
								H-1v295.254h-3.359C11.805,543.5,35.195,584.367,64.102,618.68c28.906,34.32,63.328,62.09,101.547,81.281
								c9.555,4.797,19.348,9.059,29.352,12.754v-5.16h190v5.16c10-3.695,19.797-7.957,29.352-12.754
								C452.57,680.77,486.992,653,515.898,618.68c28.906-34.312,52.297-75.18,68.461-120.555H581V350.5z"/>
							<path clip-path="url(#SVGID_12_)" fill="#6C696A" d="M581,350.5V203.852h1.41c-16.059-45.074-39.293-85.668-68.012-119.758
								c-28.711-34.09-62.906-61.676-100.871-80.742c-9.492-4.766-19.223-9-29.16-12.668v2.969H195.629v-2.969
								c-9.938,3.668-19.664,7.902-29.156,12.668c-37.965,19.066-72.16,46.652-100.871,80.742
								c-28.715,34.09-51.953,74.684-68.012,119.758H-1v293.297h-1.41c16.059,45.074,39.297,85.664,68.012,119.758
								c28.711,34.086,62.906,61.676,100.871,80.742c9.492,4.766,19.219,8.996,29.156,12.664v-2.758h188.738v2.758
								c9.938-3.668,19.668-7.898,29.16-12.664c37.965-19.066,72.16-46.656,100.871-80.742
								c28.719-34.094,51.953-74.684,68.012-119.758H581V350.5z"/>
							<path clip-path="url(#SVGID_12_)" fill="#6D6A6B" d="M581,350.5v-75.422v-53.254h5.105
								c-1.77-5.734-3.652-11.398-5.645-16.996c-15.953-44.773-39.031-85.094-67.555-118.957S450.418,24.605,412.703,5.668
								c-9.43-4.734-19.09-8.941-28.961-12.586v0.57H196.258v-0.57c-9.871,3.645-19.531,7.852-28.961,12.586
								c-37.715,18.938-71.68,46.34-100.203,80.203S15.488,160.055-0.461,204.828c-1.996,5.598-3.879,11.262-5.645,16.996H-1
								v257.352h-5.105c1.766,5.73,3.648,11.398,5.645,16.996c15.949,44.773,39.031,85.094,67.555,118.957
								s62.488,61.266,100.203,80.203c9.43,4.734,19.09,8.941,28.961,12.582v-0.359h187.484v0.359
								c9.871-3.641,19.531-7.848,28.961-12.582c37.715-18.938,71.68-46.34,100.203-80.203s51.602-74.184,67.555-118.957
								c1.992-5.598,3.875-11.266,5.645-16.996H581V350.5z"/>
							<path clip-path="url(#SVGID_12_)" fill="#6E6B6C" d="M581,350.5v-74.918v-52.895h3.121
								c-1.758-5.695-3.629-11.32-5.609-16.883c-15.844-44.473-38.77-84.523-67.105-118.156
								C483.078,54.012,449.34,26.793,411.879,7.98c-9.363-4.699-18.965-8.879-28.77-12.5c-4.898-1.809-9.852-3.48-14.855-5.008
								v3.18H211.746v-3.18C206.742-8,201.789-6.328,196.887-4.52c-9.805,3.621-19.402,7.801-28.766,12.5
								C130.66,26.793,96.922,54.012,68.594,87.648c-28.332,33.633-51.262,73.684-67.105,118.156
								c-1.98,5.562-3.852,11.188-5.605,16.883H-1v255.625h-3.117c1.754,5.695,3.625,11.32,5.605,16.883
								c15.844,44.473,38.773,84.523,67.105,118.156c28.328,33.637,62.066,60.855,99.527,79.664
								c9.363,4.703,18.961,8.883,28.766,12.5c4.902,1.812,9.855,3.484,14.859,5.012v-2.973h156.508v2.973
								c5.004-1.527,9.957-3.199,14.855-5.012c9.805-3.617,19.406-7.797,28.77-12.5c37.461-18.809,71.199-46.027,99.527-79.664
								c28.336-33.633,51.262-73.684,67.105-118.156c1.98-5.562,3.852-11.188,5.609-16.883H581V350.5z"/>
							<path clip-path="url(#SVGID_12_)" fill="#6F6C6D" d="M581,350.5v-74.41v-35.383h6.023
								c-3.031-11.562-6.527-22.879-10.461-33.926c-15.738-44.172-38.508-83.949-66.648-117.359
								c-28.141-33.406-61.648-60.441-98.859-79.125c-18.602-9.344-38.133-16.598-58.375-21.516v4.871H227.32v-4.871
								c-20.242,4.918-39.773,12.172-58.375,21.516C131.734,28.98,98.227,56.016,70.086,89.422
								c-28.141,33.41-50.91,73.188-66.648,117.359c-3.934,11.047-7.43,22.363-10.457,33.926H-1v219.59h-6.02
								c3.027,11.559,6.523,22.875,10.457,33.922c15.738,44.172,38.508,83.953,66.648,117.359s61.648,60.441,98.859,79.125
								c18.602,9.344,38.133,16.594,58.375,21.516v-4.664H352.68v4.664c20.242-4.922,39.773-12.172,58.375-21.516
								c37.211-18.684,70.719-45.719,98.859-79.125s50.91-73.188,66.648-117.359c3.934-11.047,7.43-22.363,10.461-33.922H581V350.5z
								"/>
							<path clip-path="url(#SVGID_12_)" fill="#706D6E" d="M581,350.5v-73.906v-35.141h4c-3.008-11.484-6.477-22.727-10.387-33.691
								c-15.629-43.871-38.246-83.383-66.199-116.562c-27.945-33.18-61.227-60.031-98.18-78.59
								c-18.477-9.277-37.875-16.48-57.984-21.367v2.41h-124.5v-2.41c-20.109,4.887-39.508,12.09-57.984,21.367
								c-36.953,18.559-70.234,45.41-98.18,78.59c-27.949,33.18-50.57,72.691-66.199,116.562C1.48,218.727-1.992,229.969-5,241.453
								h4v218.094h-4c3.008,11.484,6.48,22.727,10.387,33.691c15.629,43.871,38.25,83.383,66.199,116.562
								c27.945,33.18,61.227,60.031,98.18,78.59c18.477,9.277,37.875,16.48,57.984,21.367v-2.203h124.5v2.203
								c20.109-4.887,39.508-12.09,57.984-21.367c36.953-18.559,70.234-45.41,98.18-78.59c27.953-33.18,50.57-72.691,66.199-116.562
								c3.91-10.965,7.379-22.207,10.387-33.691h-4V350.5z"/>
							<path clip-path="url(#SVGID_12_)" fill="#716E6F" d="M581,350.5v-73.398v-34.902h1.98
								c-2.988-11.402-6.434-22.566-10.316-33.461c-15.523-43.57-37.984-82.809-65.742-115.762s-60.812-59.621-97.512-78.051
								c-18.352-9.215-37.613-16.371-57.586-21.223c-9.984-2.426-20.145-4.273-30.457-5.52v5.469h-62.734v-5.469
								c-10.312,1.246-20.473,3.094-30.457,5.52c-19.973,4.852-39.234,12.008-57.586,21.223
								c-36.699,18.43-69.754,45.098-97.512,78.051S22.859,165.168,7.336,208.738c-3.883,10.895-7.328,22.059-10.316,33.461H-1
								v216.602h-1.98c2.988,11.402,6.434,22.566,10.316,33.461c15.523,43.574,37.984,82.809,65.742,115.762
								s60.812,59.625,97.512,78.051c18.352,9.215,37.613,16.371,57.586,21.223c9.984,2.426,20.145,4.273,30.457,5.52v-5.262h62.734
								v5.262c10.312-1.246,20.473-3.094,30.457-5.52c19.973-4.852,39.234-12.008,57.586-21.223
								c36.699-18.426,69.754-45.098,97.512-78.051s50.219-72.188,65.742-115.762c3.883-10.895,7.328-22.059,10.316-33.461H581
								V350.5z"/>
							<path clip-path="url(#SVGID_12_)" fill="#726F70" d="M581,350.5v-72.891v-17.5h4.062c-1.25-5.777-2.617-11.5-4.102-17.164
								c-2.969-11.324-6.391-22.41-10.246-33.227c-15.418-43.273-37.723-82.242-65.289-114.969
								C450.293,29.297,374.129-11.184,290-11.184S129.707,29.297,74.574,94.75c-27.566,32.727-49.871,71.695-65.289,114.969
								c-3.855,10.816-7.277,21.902-10.246,33.227c-1.484,5.664-2.852,11.387-4.105,17.164H-1v180.781h-4.066
								c1.254,5.781,2.621,11.5,4.105,17.164c2.969,11.324,6.391,22.414,10.246,33.23c15.418,43.27,37.723,82.238,65.289,114.965
								C129.707,671.703,205.871,712.184,290,712.184s160.293-40.48,215.426-105.934c27.566-32.727,49.871-71.695,65.289-114.965
								c3.855-10.816,7.277-21.906,10.246-33.23c1.484-5.664,2.852-11.383,4.102-17.164H581V350.5z"/>
							<path clip-path="url(#SVGID_12_)" fill="#737071" d="M581,350.5v-72.387h5.395c-4.031-23.379-9.973-45.934-17.629-67.418
								c-15.309-42.973-37.461-81.672-64.836-114.168C449.18,31.531,373.547-8.672,290-8.672
								c-83.543,0-159.18,40.203-213.93,105.199c-27.375,32.496-49.527,71.195-64.836,114.168
								C3.578,232.18-2.363,254.734-6.395,278.113H-1v144.773h-5.395c4.031,23.379,9.973,45.934,17.629,67.418
								c15.309,42.973,37.461,81.672,64.836,114.168C130.82,669.469,206.457,709.672,290,709.672
								c83.547,0,159.18-40.203,213.93-105.199c27.375-32.496,49.527-71.195,64.836-114.168
								c7.656-21.484,13.598-44.039,17.629-67.418H581V350.5z"/>
							<path clip-path="url(#SVGID_12_)" fill="#747172" d="M581,350.5v-71.879h3.32c-4-23.219-9.906-45.613-17.504-66.949
								C551.613,169,529.617,130.574,502.434,98.305C448.066,33.758,372.961-6.16,290-6.16S131.934,33.758,77.566,98.305
								C50.383,130.574,28.387,169,13.184,211.672C5.582,233.008-0.32,255.402-4.32,278.621H-1v143.758h-3.32
								c4,23.219,9.902,45.613,17.504,66.949C28.387,532,50.383,570.426,77.566,602.695C131.934,667.242,207.039,707.16,290,707.16
								s158.066-39.918,212.434-104.465c27.184-32.27,49.18-70.695,64.383-113.367c7.598-21.336,13.504-43.73,17.504-66.949H581
								V350.5z"/>
							<path clip-path="url(#SVGID_12_)" fill="#757273" d="M581,350.5v-71.375h1.25c-3.977-23.055-9.836-45.289-17.383-66.477
								c-15.094-42.367-36.938-80.523-63.93-112.57C446.953,35.992,372.375-3.648,290-3.648S133.047,35.992,79.062,100.078
								c-26.992,32.047-48.836,70.203-63.93,112.57C7.586,233.836,1.727,256.07-2.25,279.125H-1v142.75h-1.25
								c3.977,23.055,9.836,45.289,17.383,66.477c15.094,42.367,36.938,80.523,63.93,112.57
								C133.047,665.008,207.625,704.648,290,704.648s156.953-39.641,210.938-103.727c26.992-32.047,48.836-70.203,63.93-112.57
								c7.547-21.188,13.406-43.422,17.383-66.477H581V350.5z"/>
							<ellipse clip-path="url(#SVGID_12_)" fill="#767374" cx="290" cy="350.5" rx="296.195" ry="351.637"/>
							<ellipse clip-path="url(#SVGID_12_)" fill="#777475" cx="290" cy="350.5" rx="294.078" ry="349.125"/>
							<ellipse clip-path="url(#SVGID_12_)" fill="#787576" cx="290" cy="350.5" rx="291.961" ry="346.613"/>
							<ellipse clip-path="url(#SVGID_12_)" fill="#797677" cx="290" cy="350.5" rx="289.848" ry="344.102"/>
							<ellipse clip-path="url(#SVGID_12_)" fill="#7A7778" cx="290" cy="350.5" rx="287.73" ry="341.59"/>
							<ellipse clip-path="url(#SVGID_12_)" fill="#7B7879" cx="290" cy="350.5" rx="285.617" ry="339.078"/>
							<ellipse clip-path="url(#SVGID_12_)" fill="#7C797A" cx="290" cy="350.5" rx="283.5" ry="336.566"/>
							<path clip-path="url(#SVGID_12_)" fill="#7D7A7B" d="M571.383,350.5c0-184.492-125.977-334.055-281.383-334.055
								C134.598,16.445,8.617,166.008,8.617,350.5S134.598,684.555,290,684.555C445.406,684.555,571.383,534.992,571.383,350.5z"/>
							<ellipse clip-path="url(#SVGID_12_)" fill="#7E7B7C" cx="289.998" cy="350.5" rx="279.268" ry="331.543"/>
							<ellipse clip-path="url(#SVGID_12_)" fill="#7F7C7D" cx="290" cy="350.5" rx="277.152" ry="329.031"/>
							<ellipse clip-path="url(#SVGID_12_)" fill="#807D7E" cx="290.002" cy="350.5" rx="275.037" ry="326.52"/>
							<ellipse clip-path="url(#SVGID_12_)" fill="#817E7F" cx="290" cy="350.5" rx="272.922" ry="324.008"/>
							<ellipse clip-path="url(#SVGID_12_)" fill="#827F80" cx="290" cy="350.5" rx="270.805" ry="321.496"/>
							<ellipse clip-path="url(#SVGID_12_)" fill="#838081" cx="290" cy="350.5" rx="268.688" ry="318.984"/>
							<ellipse clip-path="url(#SVGID_12_)" fill="#848182" cx="290" cy="350.5" rx="266.574" ry="316.473"/>
							<ellipse clip-path="url(#SVGID_12_)" fill="#858283" cx="290" cy="350.5" rx="264.457" ry="313.961"/>
							<ellipse clip-path="url(#SVGID_12_)" fill="#868384" cx="290" cy="350.5" rx="262.344" ry="311.449"/>
							<ellipse clip-path="url(#SVGID_12_)" fill="#878485" cx="290" cy="350.5" rx="260.227" ry="308.938"/>
							<ellipse clip-path="url(#SVGID_12_)" fill="#888586" cx="290" cy="350.5" rx="258.109" ry="306.426"/>
							<ellipse clip-path="url(#SVGID_12_)" fill="#898687" cx="290" cy="350.5" rx="255.996" ry="303.914"/>
							<ellipse clip-path="url(#SVGID_12_)" fill="#8A8788" cx="290" cy="350.5" rx="253.879" ry="301.402"/>
							<ellipse clip-path="url(#SVGID_12_)" fill="#8B8889" cx="290" cy="350.5" rx="251.766" ry="298.891"/>
							<ellipse clip-path="url(#SVGID_12_)" fill="#8C898A" cx="290" cy="350.5" rx="249.648" ry="296.379"/>
							<path clip-path="url(#SVGID_12_)" fill="#8D8A8B" d="M537.531,350.5c0-162.297-110.82-293.867-247.531-293.867
								c-136.707,0-247.531,131.57-247.531,293.867S153.293,644.367,290,644.367C426.711,644.367,537.531,512.797,537.531,350.5z"/>
							<path clip-path="url(#SVGID_12_)" fill="#8E8B8C" d="M535.418,350.5c0-160.91-109.879-291.355-245.418-291.355
								S44.582,189.59,44.582,350.5c0,160.914,109.879,291.355,245.418,291.355S535.418,511.414,535.418,350.5z"/>
							<ellipse clip-path="url(#SVGID_12_)" fill="#8F8D8D" cx="290" cy="350.5" rx="243.301" ry="288.844"/>
							<ellipse clip-path="url(#SVGID_12_)" fill="#908E8E" cx="290" cy="350.5" rx="241.188" ry="286.332"/>
							<ellipse clip-path="url(#SVGID_12_)" fill="#918F8F" cx="290" cy="350.5" rx="239.07" ry="283.82"/>
							<ellipse clip-path="url(#SVGID_12_)" fill="#929090" cx="290" cy="350.5" rx="236.953" ry="281.309"/>
							<ellipse clip-path="url(#SVGID_12_)" fill="#929191" cx="290" cy="350.5" rx="234.84" ry="278.797"/>
							<ellipse clip-path="url(#SVGID_12_)" fill="#939292" cx="290" cy="350.5" rx="232.723" ry="276.285"/>
							<ellipse clip-path="url(#SVGID_12_)" fill="#949393" cx="290" cy="350.5" rx="230.609" ry="273.773"/>
							<ellipse clip-path="url(#SVGID_12_)" fill="#959494" cx="290" cy="350.5" rx="228.492" ry="271.262"/>
							<ellipse clip-path="url(#SVGID_12_)" fill="#969595" cx="290" cy="350.5" rx="226.375" ry="268.75"/>
							<ellipse clip-path="url(#SVGID_12_)" fill="#979696" cx="290" cy="350.5" rx="224.262" ry="266.238"/>
							<ellipse clip-path="url(#SVGID_12_)" fill="#989797" cx="290" cy="350.5" rx="222.145" ry="263.727"/>
							<ellipse clip-path="url(#SVGID_12_)" fill="#999898" cx="290" cy="350.5" rx="220.031" ry="261.215"/>
							<ellipse clip-path="url(#SVGID_12_)" fill="#9A9999" cx="290" cy="350.5" rx="217.914" ry="258.703"/>
							<ellipse clip-path="url(#SVGID_12_)" fill="#9B9A9A" cx="290" cy="350.5" rx="215.797" ry="256.191"/>
							<ellipse clip-path="url(#SVGID_12_)" fill="#9C9B9B" cx="290" cy="350.5" rx="213.684" ry="253.68"/>
							<ellipse clip-path="url(#SVGID_12_)" fill="#9D9C9C" cx="290" cy="350.5" rx="211.566" ry="251.168"/>
							<ellipse clip-path="url(#SVGID_12_)" fill="#9E9D9D" cx="290" cy="350.5" rx="209.453" ry="248.656"/>
							<ellipse clip-path="url(#SVGID_12_)" fill="#9F9E9E" cx="290" cy="350.5" rx="207.336" ry="246.145"/>
							<ellipse clip-path="url(#SVGID_12_)" fill="#A09F9F" cx="290" cy="350.5" rx="205.219" ry="243.633"/>
							<ellipse clip-path="url(#SVGID_12_)" fill="#A1A0A0" cx="290" cy="350.5" rx="203.105" ry="241.121"/>
							<ellipse clip-path="url(#SVGID_12_)" fill="#A2A1A1" cx="290" cy="350.5" rx="200.988" ry="238.609"/>
							<ellipse clip-path="url(#SVGID_12_)" fill="#A3A2A2" cx="290.002" cy="350.5" rx="198.873" ry="236.098"/>
							<ellipse clip-path="url(#SVGID_12_)" fill="#A4A3A3" cx="290" cy="350.5" rx="196.758" ry="233.586"/>
							<ellipse clip-path="url(#SVGID_12_)" fill="#A5A4A4" cx="290" cy="350.5" rx="194.641" ry="231.074"/>
							<path clip-path="url(#SVGID_12_)" fill="#A6A5A5" d="M482.523,350.5c0-126.234-86.195-228.562-192.523-228.562
								S97.473,224.266,97.473,350.5S183.672,579.062,290,579.062S482.523,476.734,482.523,350.5z"/>
							<ellipse clip-path="url(#SVGID_12_)" fill="#A7A6A6" cx="290" cy="350.5" rx="190.41" ry="226.051"/>
							<ellipse clip-path="url(#SVGID_12_)" fill="#A8A7A7" cx="290" cy="350.5" rx="188.293" ry="223.539"/>
							<ellipse clip-path="url(#SVGID_12_)" fill="#A9A8A8" cx="290" cy="350.5" rx="186.18" ry="221.027"/>
							<ellipse clip-path="url(#SVGID_12_)" fill="#AAA9A9" cx="290" cy="350.5" rx="184.062" ry="218.516"/>
							<ellipse clip-path="url(#SVGID_12_)" fill="#ABAAAA" cx="290" cy="350.5" rx="181.945" ry="216.008"/>
							<ellipse clip-path="url(#SVGID_12_)" fill="#ACABAB" cx="290" cy="350.5" rx="179.832" ry="213.492"/>
							<ellipse clip-path="url(#SVGID_12_)" fill="#ADACAC" cx="290" cy="350.5" rx="177.715" ry="210.984"/>
							<ellipse clip-path="url(#SVGID_12_)" fill="#AEADAD" cx="290" cy="350.5" rx="175.602" ry="208.469"/>
							<ellipse clip-path="url(#SVGID_12_)" fill="#AFAEAE" cx="290" cy="350.5" rx="173.484" ry="205.961"/>
							<ellipse clip-path="url(#SVGID_12_)" fill="#B0AFAF" cx="290" cy="350.5" rx="171.367" ry="203.445"/>
							<ellipse clip-path="url(#SVGID_12_)" fill="#B1B0B0" cx="290" cy="350.5" rx="169.254" ry="200.938"/>
							<ellipse clip-path="url(#SVGID_12_)" fill="#B2B1B1" cx="290" cy="350.5" rx="167.137" ry="198.422"/>
							<ellipse clip-path="url(#SVGID_12_)" fill="#B3B2B2" cx="290" cy="350.5" rx="165.023" ry="195.914"/>
							<ellipse clip-path="url(#SVGID_12_)" fill="#B4B3B3" cx="290" cy="350.5" rx="162.906" ry="193.398"/>
							<ellipse clip-path="url(#SVGID_12_)" fill="#B5B4B4" cx="290" cy="350.5" rx="160.789" ry="190.891"/>
							<ellipse clip-path="url(#SVGID_12_)" fill="#B6B5B5" cx="290" cy="350.5" rx="158.676" ry="188.375"/>
							<path clip-path="url(#SVGID_12_)" fill="#B7B6B6" d="M446.559,350.5c0-102.648-70.094-185.867-156.559-185.867
								S133.441,247.852,133.441,350.5S203.535,536.367,290,536.367S446.559,453.148,446.559,350.5z"/>
							<path clip-path="url(#SVGID_12_)" fill="#B8B7B7" d="M444.445,350.5c0-101.262-69.148-183.352-154.445-183.352
								S135.555,249.238,135.555,350.5c0,101.266,69.148,183.352,154.445,183.352S444.445,451.766,444.445,350.5z"/>
							<ellipse clip-path="url(#SVGID_12_)" fill="#B9B8B8" cx="290" cy="350.5" rx="152.328" ry="180.844"/>
							<ellipse clip-path="url(#SVGID_12_)" fill="#BAB9B9" cx="290" cy="350.5" rx="150.211" ry="178.328"/>
							<ellipse clip-path="url(#SVGID_12_)" fill="#BBBABA" cx="290" cy="350.5" rx="148.098" ry="175.82"/>
							<ellipse clip-path="url(#SVGID_12_)" fill="#BCBBBB" cx="290" cy="350.5" rx="145.98" ry="173.305"/>
							<ellipse clip-path="url(#SVGID_12_)" fill="#BDBCBC" cx="290" cy="350.5" rx="143.867" ry="170.797"/>
							<ellipse clip-path="url(#SVGID_12_)" fill="#BEBDBD" cx="290" cy="350.5" rx="141.75" ry="168.285"/>
							<ellipse clip-path="url(#SVGID_12_)" fill="#BFBEBE" cx="290" cy="350.5" rx="139.633" ry="165.773"/>
							<path clip-path="url(#SVGID_12_)" fill="#C0BFBF" d="M427.52,350.5c0-90.164-61.57-163.262-137.52-163.262
								S152.48,260.336,152.48,350.5S214.051,513.758,290,513.758S427.52,440.664,427.52,350.5z"/>
							<ellipse clip-path="url(#SVGID_12_)" fill="#C1C0C0" cx="290" cy="350.5" rx="135.402" ry="160.75"/>
							<ellipse clip-path="url(#SVGID_12_)" fill="#C2C1C1" cx="290" cy="350.5" rx="133.289" ry="158.238"/>
							<ellipse clip-path="url(#SVGID_12_)" fill="#C3C2C2" cx="290" cy="350.5" rx="131.172" ry="155.727"/>
							<ellipse clip-path="url(#SVGID_12_)" fill="#C4C3C3" cx="290" cy="350.5" rx="129.055" ry="153.215"/>
							<ellipse clip-path="url(#SVGID_12_)" fill="#C5C4C4" cx="290" cy="350.5" rx="126.941" ry="150.703"/>
							<ellipse clip-path="url(#SVGID_12_)" fill="#C6C5C5" cx="290" cy="350.5" rx="124.824" ry="148.191"/>
							<ellipse clip-path="url(#SVGID_12_)" fill="#C7C6C6" cx="290.002" cy="350.5" rx="122.709" ry="145.68"/>
							<ellipse clip-path="url(#SVGID_12_)" fill="#C8C7C7" cx="290" cy="350.5" rx="120.594" ry="143.168"/>
							<ellipse clip-path="url(#SVGID_12_)" fill="#C9C8C8" cx="290" cy="350.5" rx="118.477" ry="140.656"/>
							<ellipse clip-path="url(#SVGID_12_)" fill="#CAC9C9" cx="289.998" cy="350.5" rx="116.361" ry="138.145"/>
							<ellipse clip-path="url(#SVGID_12_)" fill="#CBCACA" cx="290" cy="350.5" rx="114.246" ry="135.633"/>
							<ellipse clip-path="url(#SVGID_12_)" fill="#CCCBCB" cx="290" cy="350.5" rx="112.129" ry="133.121"/>
							<ellipse clip-path="url(#SVGID_12_)" fill="#CDCCCC" cx="290" cy="350.5" rx="110.016" ry="130.609"/>
							<ellipse clip-path="url(#SVGID_12_)" fill="#CECDCD" cx="290" cy="350.5" rx="107.898" ry="128.098"/>
							<ellipse clip-path="url(#SVGID_12_)" fill="#CFCECE" cx="290" cy="350.5" rx="105.781" ry="125.586"/>
							<ellipse clip-path="url(#SVGID_12_)" fill="#D0CFCF" cx="290" cy="350.5" rx="103.668" ry="123.074"/>
							<ellipse clip-path="url(#SVGID_12_)" fill="#D1D0D0" cx="290" cy="350.5" rx="101.551" ry="120.562"/>
							<ellipse clip-path="url(#SVGID_12_)" fill="#D2D1D1" cx="290" cy="350.5" rx="99.438" ry="118.051"/>
							<ellipse clip-path="url(#SVGID_12_)" fill="#D3D2D2" cx="290" cy="350.5" rx="97.32" ry="115.539"/>
							<ellipse clip-path="url(#SVGID_12_)" fill="#D4D3D3" cx="290" cy="350.5" rx="95.203" ry="113.027"/>
							<ellipse clip-path="url(#SVGID_12_)" fill="#D5D4D4" cx="290" cy="350.5" rx="93.09" ry="110.516"/>
							<ellipse clip-path="url(#SVGID_12_)" fill="#D6D5D5" cx="290" cy="350.5" rx="90.973" ry="108.004"/>
							<ellipse clip-path="url(#SVGID_12_)" fill="#D7D6D6" cx="290" cy="350.5" rx="88.859" ry="105.492"/>
							<ellipse clip-path="url(#SVGID_12_)" fill="#D8D7D7" cx="290" cy="350.5" rx="86.742" ry="102.98"/>
							<path clip-path="url(#SVGID_12_)" fill="#D9D8D8" d="M374.625,350.5c0-55.488-37.887-100.469-84.625-100.469
								s-84.625,44.98-84.625,100.469c0,55.484,37.887,100.469,84.625,100.469S374.625,405.984,374.625,350.5z"/>
							<ellipse clip-path="url(#SVGID_12_)" fill="#DAD9D9" cx="290" cy="350.5" rx="82.512" ry="97.957"/>
							<ellipse clip-path="url(#SVGID_12_)" fill="#DBDADA" cx="290" cy="350.5" rx="80.395" ry="95.445"/>
							<ellipse clip-path="url(#SVGID_12_)" fill="#DBDBDB" cx="290" cy="350.5" rx="78.281" ry="92.934"/>
							<ellipse clip-path="url(#SVGID_12_)" fill="#DCDCDC" cx="290" cy="350.5" rx="76.164" ry="90.422"/>
							<ellipse clip-path="url(#SVGID_12_)" fill="#DDDDDD" cx="290" cy="350.5" rx="74.047" ry="87.91"/>
							<ellipse clip-path="url(#SVGID_12_)" fill="#DEDEDE" cx="290" cy="350.5" rx="71.934" ry="85.398"/>
							<ellipse clip-path="url(#SVGID_12_)" fill="#DFDFDF" cx="290" cy="350.5" rx="69.816" ry="82.887"/>
							<ellipse clip-path="url(#SVGID_12_)" fill="#E0E0E0" cx="290" cy="350.5" rx="67.703" ry="80.375"/>
							<ellipse clip-path="url(#SVGID_12_)" fill="#E1E1E1" cx="290" cy="350.5" rx="65.586" ry="77.863"/>
							<ellipse clip-path="url(#SVGID_12_)" fill="#E2E2E2" cx="290" cy="350.5" rx="63.469" ry="75.352"/>
							<path clip-path="url(#SVGID_12_)" fill="#E3E3E3" d="M351.355,350.5c0-40.227-27.473-72.84-61.355-72.84
								c-33.887,0-61.355,32.613-61.355,72.84s27.469,72.84,61.355,72.84C323.883,423.34,351.355,390.727,351.355,350.5z"/>
							<ellipse clip-path="url(#SVGID_12_)" fill="#E4E4E4" cx="290" cy="350.5" rx="59.238" ry="70.328"/>
							<ellipse clip-path="url(#SVGID_12_)" fill="#E5E5E5" cx="290" cy="350.5" rx="57.125" ry="67.816"/>
							<ellipse clip-path="url(#SVGID_12_)" fill="#E6E6E6" cx="290" cy="350.5" rx="55.008" ry="65.305"/>
							<ellipse clip-path="url(#SVGID_12_)" fill="#E7E7E7" cx="290" cy="350.5" rx="52.891" ry="62.793"/>
							<ellipse clip-path="url(#SVGID_12_)" fill="#E8E8E8" cx="290" cy="350.5" rx="50.777" ry="60.281"/>
							<ellipse clip-path="url(#SVGID_12_)" fill="#E9E9E9" cx="290" cy="350.5" rx="48.66" ry="57.77"/>
							<ellipse clip-path="url(#SVGID_12_)" fill="#EAEAEA" cx="290.002" cy="350.5" rx="46.545" ry="55.258"/>
							<ellipse clip-path="url(#SVGID_12_)" fill="#EBEBEB" cx="290" cy="350.5" rx="44.43" ry="52.746"/>
							<ellipse clip-path="url(#SVGID_12_)" fill="#ECECEC" cx="290" cy="350.5" rx="42.312" ry="50.234"/>
							<ellipse clip-path="url(#SVGID_12_)" fill="#EDEDED" cx="289.998" cy="350.5" rx="40.197" ry="47.723"/>
							<ellipse clip-path="url(#SVGID_12_)" fill="#EEEEEE" cx="290" cy="350.5" rx="38.082" ry="45.211"/>
							<ellipse clip-path="url(#SVGID_12_)" fill="#EFEFEF" cx="290.002" cy="350.5" rx="35.967" ry="42.699"/>
							<ellipse clip-path="url(#SVGID_12_)" fill="#F0F0F0" cx="290" cy="350.5" rx="33.852" ry="40.188"/>
							<ellipse clip-path="url(#SVGID_12_)" fill="#F1F1F1" cx="290" cy="350.5" rx="31.734" ry="37.676"/>
							<ellipse clip-path="url(#SVGID_12_)" fill="#F2F2F2" cx="290" cy="350.5" rx="29.617" ry="35.164"/>
							<ellipse clip-path="url(#SVGID_12_)" fill="#F3F3F3" cx="290" cy="350.5" rx="27.504" ry="32.652"/>
							<ellipse clip-path="url(#SVGID_12_)" fill="#F4F4F4" cx="290" cy="350.5" rx="25.387" ry="30.141"/>
							<ellipse clip-path="url(#SVGID_12_)" fill="#F5F5F5" cx="290" cy="350.5" rx="23.273" ry="27.629"/>
							<ellipse clip-path="url(#SVGID_12_)" fill="#F6F6F6" cx="290" cy="350.5" rx="21.156" ry="25.117"/>
							<ellipse clip-path="url(#SVGID_12_)" fill="#F7F7F7" cx="290" cy="350.5" rx="19.039" ry="22.605"/>
							<ellipse clip-path="url(#SVGID_12_)" fill="#F8F8F8" cx="290" cy="350.5" rx="16.926" ry="20.094"/>
							<ellipse clip-path="url(#SVGID_12_)" fill="#F9F9F9" cx="290" cy="350.5" rx="14.809" ry="17.582"/>
							<ellipse clip-path="url(#SVGID_12_)" fill="#FAFAFA" cx="290" cy="350.5" rx="12.695" ry="15.07"/>
							<ellipse clip-path="url(#SVGID_12_)" fill="#FBFBFB" cx="290" cy="350.5" rx="10.578" ry="12.559"/>
							<ellipse clip-path="url(#SVGID_12_)" fill="#FCFCFC" cx="290" cy="350.5" rx="8.461" ry="10.047"/>
							<ellipse clip-path="url(#SVGID_12_)" fill="#FDFDFD" cx="290" cy="350.5" rx="6.348" ry="7.535"/>
							<ellipse clip-path="url(#SVGID_12_)" fill="#FEFEFE" cx="290" cy="350.5" rx="4.23" ry="5.023"/>
							<ellipse clip-path="url(#SVGID_12_)" fill="#FFFFFF" cx="290" cy="350.5" rx="2.117" ry="2.512"/>
						</g>
					</g>
				</g>
			</g>
		</g>
	</g>
	<g clip-path="url(#SVGID_2_)">
		<polygon fill="#FFFFFF" points="513.221,352.013 339.068,352.013 339.068,350.013 511.221,350.013 511.221,49.765 68.778,49.765 
			68.778,350.013 240.93,350.013 240.93,352.013 66.778,352.013 66.778,47.765 513.221,47.765 		"/>
	</g>
	<g clip-path="url(#SVGID_2_)">
		<path fill="#FFFFFF" d="M424.246,137.374H155.753V47.765h268.493V137.374z M157.753,135.374h264.493V49.765H157.753V135.374z"/>
	</g>
	<g clip-path="url(#SVGID_2_)">
		<path fill="#FFFFFF" d="M351.586,79.093H228.414V47.765h123.172V79.093z M230.414,77.093h119.172V49.765H230.414V77.093z"/>
	</g>
	<g clip-path="url(#SVGID_2_)">
		<path fill="#FFFFFF" d="M315.368,49.764h-50.737V36.86h50.737V49.764z M266.631,47.764h46.737V38.86h-46.737V47.764z"/>
	</g>
	<g clip-path="url(#SVGID_2_)">
		<defs>
			<rect id="SVGID_13_" width="580" height="700"/>
		</defs>
		<clipPath id="SVGID_14_">
			<use xlink:href="#SVGID_13_"  overflow="visible"/>
		</clipPath>
		<g clip-path="url(#SVGID_14_)">
			<path fill="#FFFFFF" d="M290,160.992c-17.641,0-33.647-9.01-42.818-24.101l1.709-1.039c8.805,14.49,24.173,23.14,41.109,23.14
				c16.933,0,32.3-8.649,41.105-23.137l1.709,1.039C323.643,151.983,307.638,160.992,290,160.992z"/>
		</g>
		<g clip-path="url(#SVGID_14_)">
			<path fill="#FFFFFF" d="M292.82,110.923c0-1.557-1.263-2.82-2.82-2.82s-2.821,1.263-2.821,2.82c0,1.558,1.263,2.82,2.821,2.82
				S292.82,112.481,292.82,110.923"/>
		</g>
		<g clip-path="url(#SVGID_14_)">
			<path fill="#FFFFFF" d="M290,401.081c-27.608,0-50.069-22.461-50.069-50.068s22.461-50.068,50.069-50.068
				c27.607,0,50.068,22.46,50.068,50.068S317.607,401.081,290,401.081z M290,302.945c-26.505,0-48.069,21.563-48.069,48.068
				s21.564,48.068,48.069,48.068c26.505,0,48.068-21.563,48.068-48.068S316.505,302.945,290,302.945z"/>
		</g>
		<g clip-path="url(#SVGID_14_)">
			<path fill="#FFFFFF" d="M67.779,62.36v-2c6.394,0,11.596-5.202,11.596-11.596h2C81.375,56.261,75.275,62.36,67.779,62.36z"/>
		</g>
		<g clip-path="url(#SVGID_14_)">
			<path fill="#FFFFFF" d="M512.222,62.36c-7.497,0-13.596-6.099-13.596-13.596h2c0,6.394,5.202,11.596,11.596,11.596V62.36z"/>
		</g>
		<g clip-path="url(#SVGID_14_)">
			<path fill="#FFFFFF" d="M513.221,648.792H66.779V350.013h446.442V648.792z M68.779,646.792h442.442V352.013H68.779V646.792z"/>
		</g>
		<g clip-path="url(#SVGID_14_)">
			<path fill="#FFFFFF" d="M424.246,648.791H155.753v-89.609h268.493V648.791z M157.753,646.791h264.493v-85.609H157.753V646.791z"
				/>
		</g>
		<g clip-path="url(#SVGID_14_)">
			<path fill="#FFFFFF" d="M351.586,648.792H228.414v-31.329h123.172V648.792z M230.414,646.792h119.172v-27.329H230.414V646.792z"
				/>
		</g>
		<g clip-path="url(#SVGID_14_)">
			<path fill="#FFFFFF" d="M315.368,659.696h-50.737v-12.904h50.737V659.696z M266.631,657.696h46.737v-8.904h-46.737V657.696z"/>
		</g>
		<g clip-path="url(#SVGID_14_)">
			<path fill="#FFFFFF" d="M248.891,560.704l-1.709-1.039c9.171-15.092,25.178-24.102,42.818-24.102
				c17.638,0,33.643,9.009,42.814,24.099l-1.709,1.039c-8.806-14.488-24.172-23.138-41.105-23.138
				C273.064,537.563,257.696,546.214,248.891,560.704z"/>
		</g>
		<g clip-path="url(#SVGID_14_)">
			<path fill="#FFFFFF" d="M292.82,585.633c0,1.557-1.263,2.82-2.82,2.82s-2.821-1.264-2.821-2.82c0-1.559,1.263-2.82,2.821-2.82
				S292.82,584.074,292.82,585.633"/>
		</g>
		<g clip-path="url(#SVGID_14_)">
			<path fill="#FFFFFF" d="M292.82,351.625c0,1.557-1.263,2.819-2.82,2.819s-2.821-1.263-2.821-2.819c0-1.559,1.263-2.82,2.821-2.82
				S292.82,350.066,292.82,351.625"/>
		</g>
		<g clip-path="url(#SVGID_14_)">
			<path fill="#FFFFFF" d="M81.375,647.791h-2c0-6.395-5.202-11.598-11.596-11.598v-2C75.275,634.193,81.375,640.293,81.375,647.791
				z"/>
		</g>
		<g clip-path="url(#SVGID_14_)">
			<path fill="#FFFFFF" d="M500.626,647.791h-2c0-7.498,6.099-13.598,13.596-13.598v2
				C505.828,636.193,500.626,641.396,500.626,647.791z"/>
		</g>
	</g>
</g>
</svg>
