<?xml version="1.0" encoding="utf-8"?>
<!-- Generator: Adobe Illustrator 16.0.0, SVG Export Plug-In . SVG Version: 6.00 Build 0)  -->
<!DOCTYPE svg PUBLIC "-//W3C//DTD SVG 1.1//EN" "http://www.w3.org/Graphics/SVG/1.1/DTD/svg11.dtd">
<svg version="1.1" id="Layer_1" xmlns="http://www.w3.org/2000/svg" xmlns:xlink="http://www.w3.org/1999/xlink" x="0px" y="0px"
	 width="580px" height="700px" viewBox="0 0 580 700" enable-background="new 0 0 580 700" xml:space="preserve">
<g>
	<defs>
		<rect id="SVGID_1_" width="580" height="700"/>
	</defs>
	<clipPath id="SVGID_2_">
		<use xlink:href="#SVGID_1_"  overflow="visible"/>
	</clipPath>
	<g clip-path="url(#SVGID_2_)">
		<rect fill="#64A340" width="580" height="700"/>
	</g>
	<g clip-path="url(#SVGID_2_)">
		<polygon fill="#FFFFFF" points="513.221,352.013 339.068,352.013 339.068,350.013 511.221,350.013 511.221,49.765 68.778,49.765 
			68.778,350.013 240.93,350.013 240.93,352.013 66.778,352.013 66.778,47.765 513.221,47.765 		"/>
	</g>
	<g clip-path="url(#SVGID_2_)">
		<path fill="#FFFFFF" d="M424.246,137.374H155.753V47.765h268.493V137.374z M157.753,135.374h264.493V49.765H157.753V135.374z"/>
	</g>
	<g clip-path="url(#SVGID_2_)">
		<path fill="#FFFFFF" d="M351.586,79.093H228.414V47.765h123.172V79.093z M230.414,77.093h119.172V49.765H230.414V77.093z"/>
	</g>
	<g clip-path="url(#SVGID_2_)">
		<path fill="#FFFFFF" d="M315.368,49.764h-50.737V36.86h50.737V49.764z M266.631,47.764h46.737V38.86h-46.737V47.764z"/>
	</g>
	<g clip-path="url(#SVGID_2_)">
		<defs>
			<rect id="SVGID_3_" width="580" height="700"/>
		</defs>
		<clipPath id="SVGID_4_">
			<use xlink:href="#SVGID_3_"  overflow="visible"/>
		</clipPath>
		<g clip-path="url(#SVGID_4_)">
			<path fill="#FFFFFF" d="M290,160.992c-17.641,0-33.647-9.01-42.818-24.101l1.709-1.039c8.805,14.49,24.173,23.14,41.109,23.14
				c16.933,0,32.3-8.649,41.105-23.137l1.709,1.039C323.643,151.983,307.638,160.992,290,160.992z"/>
		</g>
		<g clip-path="url(#SVGID_4_)">
			<path fill="#FFFFFF" d="M292.82,110.923c0-1.557-1.263-2.82-2.82-2.82s-2.821,1.263-2.821,2.82c0,1.558,1.263,2.82,2.821,2.82
				S292.82,112.481,292.82,110.923"/>
		</g>
		<g clip-path="url(#SVGID_4_)">
			<path fill="#FFFFFF" d="M290,401.081c-27.608,0-50.069-22.461-50.069-50.068s22.461-50.068,50.069-50.068
				c27.607,0,50.068,22.46,50.068,50.068S317.607,401.081,290,401.081z M290,302.945c-26.505,0-48.069,21.563-48.069,48.068
				s21.564,48.068,48.069,48.068c26.505,0,48.068-21.563,48.068-48.068S316.505,302.945,290,302.945z"/>
		</g>
		<g clip-path="url(#SVGID_4_)">
			<path fill="#FFFFFF" d="M67.779,62.36v-2c6.394,0,11.596-5.202,11.596-11.596h2C81.375,56.261,75.275,62.36,67.779,62.36z"/>
		</g>
		<g clip-path="url(#SVGID_4_)">
			<path fill="#FFFFFF" d="M512.222,62.36c-7.497,0-13.596-6.099-13.596-13.596h2c0,6.394,5.202,11.596,11.596,11.596V62.36z"/>
		</g>
		<g clip-path="url(#SVGID_4_)">
			<path fill="#FFFFFF" d="M513.221,648.792H66.779V350.013h446.442V648.792z M68.779,646.792h442.442V352.013H68.779V646.792z"/>
		</g>
		<g clip-path="url(#SVGID_4_)">
			<path fill="#FFFFFF" d="M424.246,648.791H155.753v-89.609h268.493V648.791z M157.753,646.791h264.493v-85.609H157.753V646.791z"
				/>
		</g>
		<g clip-path="url(#SVGID_4_)">
			<path fill="#FFFFFF" d="M351.586,648.792H228.414v-31.329h123.172V648.792z M230.414,646.792h119.172v-27.329H230.414V646.792z"
				/>
		</g>
		<g clip-path="url(#SVGID_4_)">
			<path fill="#FFFFFF" d="M315.368,659.696h-50.737v-12.904h50.737V659.696z M266.631,657.696h46.737v-8.904h-46.737V657.696z"/>
		</g>
		<g clip-path="url(#SVGID_4_)">
			<path fill="#FFFFFF" d="M248.891,560.704l-1.709-1.039c9.171-15.092,25.178-24.102,42.818-24.102
				c17.638,0,33.643,9.009,42.814,24.099l-1.709,1.039c-8.806-14.488-24.172-23.138-41.105-23.138
				C273.064,537.563,257.696,546.214,248.891,560.704z"/>
		</g>
		<g clip-path="url(#SVGID_4_)">
			<path fill="#FFFFFF" d="M292.82,585.633c0,1.557-1.263,2.82-2.82,2.82s-2.821-1.264-2.821-2.82c0-1.559,1.263-2.82,2.821-2.82
				S292.82,584.074,292.82,585.633"/>
		</g>
		<g clip-path="url(#SVGID_4_)">
			<path fill="#FFFFFF" d="M292.82,351.625c0,1.557-1.263,2.819-2.82,2.819s-2.821-1.263-2.821-2.819c0-1.559,1.263-2.82,2.821-2.82
				S292.82,350.066,292.82,351.625"/>
		</g>
		<g clip-path="url(#SVGID_4_)">
			<path fill="#FFFFFF" d="M81.375,647.791h-2c0-6.395-5.202-11.598-11.596-11.598v-2C75.275,634.193,81.375,640.293,81.375,647.791
				z"/>
		</g>
		<g clip-path="url(#SVGID_4_)">
			<path fill="#FFFFFF" d="M500.626,647.791h-2c0-7.498,6.099-13.598,13.596-13.598v2
				C505.828,636.193,500.626,641.396,500.626,647.791z"/>
		</g>
	</g>
</g>
</svg>
