<?xml version="1.0" encoding="utf-8"?>
<!-- Generator: Adobe Illustrator 16.0.0, SVG Export Plug-In . SVG Version: 6.00 Build 0)  -->
<!DOCTYPE svg PUBLIC "-//W3C//DTD SVG 1.1//EN" "http://www.w3.org/Graphics/SVG/1.1/DTD/svg11.dtd">
<svg version="1.1" id="Layer_1" xmlns="http://www.w3.org/2000/svg" xmlns:xlink="http://www.w3.org/1999/xlink" x="0px" y="0px"
	 width="580px" height="700px" viewBox="0 0 580 700" enable-background="new 0 0 580 700" xml:space="preserve">
<g>
	<defs>
		<rect id="SVGID_1_" width="580" height="700"/>
	</defs>
	<clipPath id="SVGID_2_">
		<use xlink:href="#SVGID_1_"  overflow="visible"/>
	</clipPath>
	<g clip-path="url(#SVGID_2_)">
		<rect fill="#64A340" width="580" height="700"/>
	</g>
	<g clip-path="url(#SVGID_2_)">
		<polygon fill="#FFFFFF" points="514.221,353.013 339.068,353.013 339.068,349.013 510.221,349.013 510.221,50.765 69.778,50.765 
			69.778,349.013 240.93,349.013 240.93,353.013 65.778,353.013 65.778,46.765 514.221,46.765 		"/>
	</g>
	<g clip-path="url(#SVGID_2_)">
		<path fill="#FFFFFF" d="M425.246,138.374H154.753V46.765h270.493V138.374z M158.753,134.374h262.493V50.765H158.753V134.374z"/>
	</g>
	<g clip-path="url(#SVGID_2_)">
		<path fill="#FFFFFF" d="M352.586,80.093H227.414V46.765h125.172V80.093z M231.414,76.093h117.172V50.765H231.414V76.093z"/>
	</g>
	<g clip-path="url(#SVGID_2_)">
		<path fill="#FFFFFF" d="M316.368,50.764h-52.737V35.86h52.737V50.764z M267.631,46.764h44.737V39.86h-44.737V46.764z"/>
	</g>
	<g clip-path="url(#SVGID_2_)">
		<defs>
			<rect id="SVGID_3_" width="580" height="700"/>
		</defs>
		<clipPath id="SVGID_4_">
			<use xlink:href="#SVGID_3_"  overflow="visible"/>
		</clipPath>
		<g clip-path="url(#SVGID_4_)">
			<path fill="#FFFFFF" d="M290,160.992c-17.641,0-33.647-9.01-42.818-24.101l1.709-1.039c8.805,14.49,24.173,23.14,41.109,23.14
				c16.933,0,32.3-8.649,41.105-23.137l1.709,1.039C323.643,151.983,307.638,160.992,290,160.992z"/>
		</g>
		<g clip-path="url(#SVGID_4_)">
			<path fill="#FFFFFF" d="M292.82,110.923c0-1.557-1.263-2.82-2.82-2.82s-2.821,1.263-2.821,2.82c0,1.558,1.263,2.82,2.821,2.82
				S292.82,112.481,292.82,110.923"/>
		</g>
		<g clip-path="url(#SVGID_4_)">
			<path fill="#FFFFFF" d="M290,402.081c-28.16,0-51.069-22.909-51.069-51.068c0-28.159,22.91-51.068,51.069-51.068
				c28.159,0,51.068,22.909,51.068,51.068C341.068,379.172,318.159,402.081,290,402.081z M290,303.945
				c-25.954,0-47.069,21.115-47.069,47.068s21.115,47.068,47.069,47.068c25.953,0,47.068-21.115,47.068-47.068
				S315.953,303.945,290,303.945z"/>
		</g>
		<g clip-path="url(#SVGID_4_)">
			<path fill="#FFFFFF" stroke="#FFFFFF" stroke-width="3" stroke-miterlimit="10" d="M67.779,62.36v-2
				c6.394,0,11.596-5.202,11.596-11.596h2C81.375,56.261,75.275,62.36,67.779,62.36z"/>
		</g>
		<g clip-path="url(#SVGID_4_)">
			<path fill="#FFFFFF" stroke="#FFFFFF" stroke-width="3" stroke-miterlimit="10" d="M512.222,62.36
				c-7.497,0-13.596-6.099-13.596-13.596h2c0,6.394,5.202,11.596,11.596,11.596V62.36z"/>
		</g>
		<g clip-path="url(#SVGID_4_)">
			<path fill="#FFFFFF" d="M514.221,649.792H65.779V349.013h448.442V649.792z M69.779,645.792h440.442V353.013H69.779V645.792z"/>
		</g>
		<g clip-path="url(#SVGID_4_)">
			<path fill="#FFFFFF" d="M425.246,649.791H154.753v-91.609h270.493V649.791z M158.753,645.791h262.493v-83.609H158.753V645.791z"
				/>
		</g>
		<g clip-path="url(#SVGID_4_)">
			<path fill="#FFFFFF" d="M352.586,649.792H227.414v-33.329h125.172V649.792z M231.414,645.792h117.172v-25.329H231.414V645.792z"
				/>
		</g>
		<g clip-path="url(#SVGID_4_)">
			<path fill="#FFFFFF" d="M316.368,660.696h-52.737v-14.904h52.737V660.696z M267.631,656.696h44.737v-6.904h-44.737V656.696z"/>
		</g>
		<g clip-path="url(#SVGID_4_)">
			<path fill="#FFFFFF" d="M249.745,561.224l-3.418-2.078c9.354-15.393,25.68-24.582,43.673-24.582
				c17.989,0,34.314,9.188,43.669,24.579l-3.418,2.078c-8.623-14.188-23.67-22.657-40.251-22.657
				C273.416,538.563,258.368,547.034,249.745,561.224z"/>
		</g>
		<g clip-path="url(#SVGID_4_)">
			<path fill="#FFFFFF" d="M292.82,585.633c0,1.557-1.263,2.82-2.82,2.82s-2.821-1.264-2.821-2.82c0-1.559,1.263-2.82,2.821-2.82
				S292.82,584.074,292.82,585.633"/>
		</g>
		<g clip-path="url(#SVGID_4_)">
			<path fill="#FFFFFF" d="M294.23,351.625c0,2.335-1.894,4.229-4.23,4.229c-2.336,0-4.231-1.895-4.231-4.229
				c0-2.338,1.895-4.23,4.231-4.23C292.337,347.395,294.23,349.287,294.23,351.625"/>
		</g>
		<g clip-path="url(#SVGID_4_)">
			<path fill="#FFFFFF" d="M82.375,647.791h-4c0-5.844-4.753-10.598-10.596-10.598v-4C75.827,633.193,82.375,639.742,82.375,647.791
				z"/>
		</g>
		<g clip-path="url(#SVGID_4_)">
			<path fill="#FFFFFF" d="M501.626,647.791h-4c0-8.049,6.548-14.598,14.596-14.598v4
				C506.379,637.193,501.626,641.947,501.626,647.791z"/>
		</g>
	</g>
</g>
</svg>
