<?xml version="1.0" encoding="utf-8"?>
<!-- Generator: Adobe Illustrator 17.0.0, SVG Export Plug-In . SVG Version: 6.00 Build 0)  -->
<!DOCTYPE svg PUBLIC "-//W3C//DTD SVG 1.1//EN" "http://www.w3.org/Graphics/SVG/1.1/DTD/svg11.dtd">
<svg version="1.1" id="Layer_1" xmlns="http://www.w3.org/2000/svg" xmlns:xlink="http://www.w3.org/1999/xlink" x="0px" y="0px"
	 width="1034px" height="370px" viewBox="0 0 1034 370" enable-background="new 0 0 1034 370" xml:space="preserve">
<g>
	<g>
		<g>
			<defs>
				<rect id="SVGID_1_" x="-196" y="-114.28" width="841.89" height="595.28"/>
			</defs>
			<clipPath id="SVGID_2_">
				<use xlink:href="#SVGID_1_"  overflow="visible"/>
			</clipPath>
			<g clip-path="url(#SVGID_2_)">
				<path fill="#FFFFFF" d="M45.281,347.092l30.133-95.89c-11.624-22.226-17.745-47.104-17.745-72.267
					c0-86.033,69.992-156.027,156.024-156.027c86.034,0,156.026,69.994,156.026,156.027c0,86.039-69.992,156.037-156.026,156.037
					c-26.375,0-52.298-6.684-75.301-19.37L45.281,347.092z M140.86,291.352l4.39,2.616c20.662,12.313,44.33,18.821,68.443,18.821
					c73.801,0,133.844-60.046,133.844-133.854c0-73.802-60.043-133.845-133.844-133.845S79.851,105.133,79.851,178.936
					c0,22.982,5.952,45.688,17.214,65.66l2.361,4.187l-19.895,63.311L140.86,291.352z"/>
				<path fill="#FFFFFF" d="M293.785,98.3c10.109,10.111,18.137,22.137,24.125,36.116c5.967,13.979,8.963,28.612,8.963,43.943
					s-2.996,29.972-8.963,43.95c-5.988,13.964-14.016,26.006-24.125,36.116c-10.102,10.104-22.135,18.133-36.107,24.118
					c-13.982,5.973-28.631,8.955-43.952,8.955c-15.333,0-29.976-2.982-43.948-8.955c-13.972-5.985-26.012-14.015-36.104-24.118
					c-10.115-10.11-18.154-22.152-24.131-36.116c-5.97-13.978-8.958-28.619-8.958-43.95s2.988-29.964,8.958-43.943
					c5.977-13.979,14.016-26.005,24.131-36.116c10.092-10.095,22.132-18.14,36.104-24.113c13.972-5.986,28.615-8.969,43.948-8.969
					c15.321,0,29.969,2.983,43.952,8.969C271.65,80.16,283.684,88.205,293.785,98.3 M139.347,219.034l41.171,5.047l17.557,37.626
					l-14.659,8.714c9.855,3.274,19.956,4.92,30.311,4.92c10.364,0,20.456-1.646,30.303-4.92l-14.646-8.714l17.555-37.626
					l41.162-5.047l3.799,16.668c12.533-17.089,18.812-36.214,18.812-57.343v-0.383l-12.891,11.251l-30.303-28.295l7.822-40.781
					l17.053,1.518c-12.625-17.345-28.986-29.206-49.127-35.612l6.707,15.661l-36.247,20.071l-36.25-20.071l6.705-15.661
					c-20.131,6.406-36.493,18.267-49.12,35.612l16.927-1.518l7.943,40.781l-30.316,28.295l-12.868-11.251v0.383
					c0,21.129,6.268,40.254,18.812,57.343L139.347,219.034z M236.08,210.697h-44.83l-13.774-42.442l36.25-26.261l36.247,26.261
					L236.08,210.697z"/>
			</g>
		</g>
	</g>
</g>
<g enable-background="new    ">
	<path fill="#FFFFFF" d="M417.426,120.689h76.978v18.97h-54.565v24.829h47.827v18.75h-47.827v45.263h-22.412V120.689z"/>
	<path fill="#FFFFFF" d="M528.168,148.667v48.12c0,4.541,0.535,7.959,1.604,10.254c1.895,4.054,5.611,6.079,11.15,6.079
		c7.092,0,11.951-2.881,14.576-8.643c1.359-3.124,2.04-7.251,2.04-12.378v-43.432h21.167v79.833h-20.288v-11.279
		c-0.194,0.245-0.683,0.978-1.46,2.197c-0.779,1.221-1.704,2.296-2.775,3.223c-3.263,2.93-6.416,4.933-9.459,6.006
		c-3.044,1.073-6.609,1.611-10.699,1.611c-11.783,0-19.72-4.248-23.81-12.744c-2.289-4.688-3.432-11.597-3.432-20.728v-48.12
		H528.168z"/>
	<path fill="#FFFFFF" d="M590.79,164.268V149.4h11.133v-22.266h20.654V149.4h12.964v14.868h-12.964v42.187
		c0,3.271,0.414,5.31,1.245,6.116c0.83,0.805,3.369,1.208,7.617,1.208c0.634,0,1.306-0.012,2.014-0.036
		c0.707-0.024,1.403-0.062,2.088-0.11v15.601l-9.888,0.366c-9.864,0.341-16.603-1.366-20.215-5.127
		c-2.344-2.392-3.516-6.079-3.516-11.06v-49.145H590.79z"/>
	<path fill="#FFFFFF" d="M644.403,165.66v-16.992h63.135v17.358l-39.173,45.336h40.564v17.139h-67.31v-16.26l39.573-46.582H644.403z
		"/>
	<path opacity="0.6" fill="#FFFFFF" d="M716.453,228.501l42.45-108h11.55l41.4,108h-10.5l-12.45-33.9h-49.2l-12.75,33.9H716.453z
		 M743.153,185.901h42.3l-21.15-56.7L743.153,185.901z"/>
	<path opacity="0.6" fill="#FFFFFF" d="M835.102,259.101h-9V150.801h9v13.65h0.301c1.298-2.499,2.974-4.749,5.024-6.75
		c2.049-1.999,4.299-3.649,6.75-4.95c2.449-1.299,4.974-2.299,7.575-3c2.6-0.698,5.149-1.05,7.65-1.05
		c6.3,0,11.648,1.05,16.05,3.149c4.399,2.101,8.024,4.977,10.875,8.625c2.85,3.652,4.924,7.977,6.225,12.976
		c1.299,5.001,1.95,10.35,1.95,16.049c0,5.4-0.701,10.601-2.1,15.6c-1.402,5.002-3.525,9.375-6.375,13.125
		c-2.851,3.75-6.45,6.75-10.801,9c-4.35,2.25-9.476,3.375-15.375,3.375c-5.5,0-10.776-1.226-15.824-3.675
		c-5.051-2.449-9.026-6.075-11.926-10.875V259.101z M835.102,189.951c0,4.401,0.601,8.575,1.801,12.524
		c1.199,3.952,2.925,7.402,5.175,10.351c2.25,2.95,4.999,5.302,8.25,7.05c3.248,1.751,6.923,2.625,11.024,2.625
		c4.599,0,8.625-0.924,12.075-2.775c3.45-1.849,6.274-4.373,8.476-7.574c2.198-3.199,3.799-6.924,4.8-11.176
		c0.998-4.249,1.399-8.824,1.2-13.725c0-4.898-0.676-9.224-2.025-12.974s-3.225-6.924-5.625-9.525c-2.4-2.6-5.201-4.575-8.4-5.925
		c-3.201-1.351-6.7-2.025-10.5-2.025c-4.199,0-7.949,0.851-11.25,2.55c-3.3,1.702-6.051,4.027-8.25,6.976
		c-2.2,2.95-3.876,6.45-5.024,10.5C835.676,180.876,835.102,185.252,835.102,189.951z"/>
	<path opacity="0.6" fill="#FFFFFF" d="M926.751,259.101h-9V150.801h9v13.65h0.3c1.299-2.499,2.975-4.749,5.025-6.75
		c2.049-1.999,4.299-3.649,6.75-4.95c2.449-1.299,4.973-2.299,7.574-3c2.6-0.698,5.15-1.05,7.65-1.05
		c6.301,0,11.648,1.05,16.051,3.149c4.398,2.101,8.024,4.977,10.875,8.625c2.85,3.652,4.924,7.977,6.225,12.976
		c1.299,5.001,1.949,10.35,1.949,16.049c0,5.4-0.7,10.601-2.1,15.6c-1.401,5.002-3.525,9.375-6.375,13.125s-6.449,6.75-10.8,9
		s-9.476,3.375-15.375,3.375c-5.501,0-10.776-1.226-15.825-3.675c-5.051-2.449-9.025-6.075-11.925-10.875V259.101z M926.751,189.951
		c0,4.401,0.601,8.575,1.8,12.524c1.2,3.952,2.926,7.402,5.176,10.351c2.25,2.95,4.998,5.302,8.25,7.05
		c3.248,1.751,6.923,2.625,11.024,2.625c4.599,0,8.625-0.924,12.075-2.775c3.449-1.849,6.273-4.373,8.475-7.574
		c2.199-3.199,3.799-6.924,4.801-11.176c0.998-4.249,1.398-8.824,1.199-13.725c0-4.898-0.675-9.224-2.025-12.974
		c-1.35-3.75-3.225-6.924-5.625-9.525c-2.399-2.6-5.2-4.575-8.399-5.925c-3.202-1.351-6.7-2.025-10.5-2.025
		c-4.2,0-7.95,0.851-11.25,2.55c-3.3,1.702-6.052,4.027-8.25,6.976c-2.2,2.95-3.876,6.45-5.024,10.5
		C927.325,180.876,926.751,185.252,926.751,189.951z"/>
</g>
</svg>
