<?xml version="1.0" encoding="utf-8"?>
<!-- Generator: Adobe Illustrator 17.0.0, SVG Export Plug-In . SVG Version: 6.00 Build 0)  -->
<!DOCTYPE svg PUBLIC "-//W3C//DTD SVG 1.1//EN" "http://www.w3.org/Graphics/SVG/1.1/DTD/svg11.dtd">
<svg version="1.1" id="Layer_1" xmlns="http://www.w3.org/2000/svg" xmlns:xlink="http://www.w3.org/1999/xlink" x="0px" y="0px"
	 width="1034px" height="370px" viewBox="0 0 1034 370" enable-background="new 0 0 1034 370" xml:space="preserve">
<g>
	<g>
		<defs>
			<rect id="SVGID_1_" x="-196" y="-114.28" width="841.89" height="595.28"/>
		</defs>
		<clipPath id="SVGID_2_">
			<use xlink:href="#SVGID_1_"  overflow="visible"/>
		</clipPath>
		<g clip-path="url(#SVGID_2_)">
			<path fill="#FFFFFF" d="M45.281,347.092l30.133-95.89c-11.624-22.226-17.745-47.104-17.745-72.267
				c0-86.033,69.992-156.027,156.024-156.027c86.034,0,156.026,69.994,156.026,156.027c0,86.039-69.992,156.037-156.026,156.037
				c-26.375,0-52.298-6.684-75.301-19.37L45.281,347.092z M140.86,291.352l4.39,2.616c20.662,12.313,44.33,18.821,68.443,18.821
				c73.801,0,133.844-60.046,133.844-133.854c0-73.802-60.043-133.845-133.844-133.845S79.851,105.133,79.851,178.936
				c0,22.982,5.952,45.688,17.214,65.66l2.361,4.187l-19.895,63.311L140.86,291.352z"/>
			<path fill="#FFFFFF" d="M293.785,98.3c10.109,10.111,18.137,22.137,24.125,36.116c5.967,13.979,8.963,28.612,8.963,43.943
				s-2.996,29.972-8.963,43.95c-5.988,13.964-14.016,26.006-24.125,36.116c-10.102,10.104-22.135,18.133-36.107,24.118
				c-13.982,5.973-28.631,8.955-43.952,8.955c-15.333,0-29.976-2.982-43.948-8.955c-13.972-5.985-26.012-14.015-36.104-24.118
				c-10.115-10.11-18.154-22.152-24.131-36.116c-5.97-13.978-8.958-28.619-8.958-43.95s2.988-29.964,8.958-43.943
				c5.977-13.979,14.016-26.005,24.131-36.116c10.092-10.095,22.132-18.14,36.104-24.113c13.972-5.986,28.615-8.969,43.948-8.969
				c15.321,0,29.969,2.983,43.952,8.969C271.65,80.16,283.684,88.205,293.785,98.3 M139.347,219.034l41.171,5.047l17.557,37.626
				l-14.659,8.714c9.855,3.274,19.956,4.92,30.311,4.92c10.364,0,20.456-1.646,30.303-4.92l-14.646-8.714l17.555-37.626
				l41.162-5.047l3.799,16.668c12.533-17.089,18.812-36.214,18.812-57.343v-0.383l-12.891,11.251l-30.303-28.295l7.822-40.781
				l17.053,1.518c-12.625-17.345-28.986-29.206-49.127-35.612l6.707,15.661l-36.247,20.071l-36.25-20.071l6.705-15.661
				c-20.131,6.406-36.493,18.267-49.12,35.612l16.927-1.518l7.943,40.781l-30.316,28.295l-12.868-11.251v0.383
				c0,21.129,6.268,40.254,18.812,57.343L139.347,219.034z M236.08,210.697h-44.83l-13.774-42.442l36.25-26.261l36.247,26.261
				L236.08,210.697z"/>
		</g>
	</g>
</g>
<text transform="matrix(1 0 0 1 406 228.5013)" fill="#FFFFFF" font-family="'Helvetica-Bold'" font-size="150">Futzapp</text>
</svg>
