<?xml version="1.0" encoding="utf-8"?>
<!-- Generator: Adobe Illustrator 16.0.0, SVG Export Plug-In . SVG Version: 6.00 Build 0)  -->
<!DOCTYPE svg PUBLIC "-//W3C//DTD SVG 1.1//EN" "http://www.w3.org/Graphics/SVG/1.1/DTD/svg11.dtd">
<svg version="1.1" id="Layer_3" xmlns="http://www.w3.org/2000/svg" xmlns:xlink="http://www.w3.org/1999/xlink" x="0px" y="0px"
	 width="235px" height="237px" viewBox="63.205 47 235 237" enable-background="new 63.205 47 235 237" xml:space="preserve">
<g>
	<path id="Blue_1_" fill="#3C5A99" d="M281.736,279.067c6.922,0,12.535-5.613,12.535-12.537V64.468
		c0-6.924-5.612-12.536-12.535-12.536H79.674c-6.924,0-12.536,5.612-12.536,12.536V266.53c0,6.922,5.611,12.537,12.536,12.537
		H281.736z"/>
	<path id="f" fill="#FFFFFF" d="M223.857,279.067v-87.959h29.524l4.42-34.28h-33.944v-21.885c0-9.925,2.756-16.688,16.987-16.688
		l18.152-0.008v-30.66c-3.139-0.418-13.914-1.351-26.45-1.351c-26.17,0-44.088,15.975-44.088,45.312v25.279h-29.599v34.28h29.599
		v87.959H223.857z"/>
</g>
</svg>
