<?xml version="1.0" encoding="UTF-8" standalone="no"?>
<svg width="316px" height="96px" viewBox="0 0 316 96" version="1.1" xmlns="http://www.w3.org/2000/svg" xmlns:xlink="http://www.w3.org/1999/xlink" xmlns:sketch="http://www.bohemiancoding.com/sketch/ns">
    <!-- Generator: Sketch 3.2.2 (9983) - http://www.bohemiancoding.com/sketch -->
    <title>Artboard 2</title>
    <desc>Created with Sketch.</desc>
    <defs></defs>
    <g id="Page-1" stroke="none" stroke-width="1" fill="none" fill-rule="evenodd" sketch:type="MSPage">
        <g id="Artboard-2" sketch:type="MSArtboardGroup">
            <g id="Group" sketch:type="MSLayerGroup" transform="translate(14.000000, 7.000000)">
                <path d="M43.6105645,78.3356666 C36.3636039,78.3356666 29.5867148,76.3768078 23.7863099,72.9835024 L3.14718585,79.8360999 L9.83292658,58.9483744 C6.66282449,53.4292859 4.84635703,47.064409 4.84635703,40.277798 C4.84635703,19.26158 22.2010373,2.22152473 43.6105645,2.22152473 C65.0187622,2.22152473 82.3755106,19.26158 82.3755106,40.277798 C82.3755106,61.2989469 65.0187622,78.3356666 43.6105645,78.3356666 Z" id="Fill-1" fill="#48AC3E" sketch:type="MSShapeGroup"></path>
                <path d="M0.58203125,82.4095765 L8.03477743,59.1253055 C4.85994803,53.3551779 3.1850043,46.8544121 3.1850043,40.277798 C3.1850043,29.6774528 7.38979557,19.7113039 15.0249862,12.2152285 C22.6604723,4.71886297 32.8123627,0.590423493 43.6105645,0.590423493 C54.4081754,0.590423493 64.5600657,4.71886297 72.195995,12.2152285 C79.8317766,19.7114489 84.0370111,29.6777429 84.0370111,40.277798 C84.0370111,50.8798835 79.8316289,60.8470476 72.195995,68.3431231 C64.5605089,75.8386184 54.4086185,79.9667678 43.6105645,79.9667678 C36.5850486,79.9667678 29.6849541,78.1709177 23.6026836,74.7663002 L0.58203125,82.4095765 L0.58203125,82.4095765 Z M43.6105645,3.85248093 C33.7000622,3.85248093 24.3825414,7.64156086 17.3747529,14.5218582 C10.3671122,21.4018656 6.50785748,30.5487657 6.50785748,40.277798 C6.50785748,46.5324556 8.15813058,52.7117 11.280221,58.1472538 L11.6338826,58.7630319 L5.71248819,77.2624783 L23.9792431,71.197514 L24.6369296,71.5822665 C30.3649476,74.9333695 36.9258579,76.7045654 43.6105645,76.7045654 C53.5212145,76.7045654 62.8384399,72.9159205 69.8462283,66.0363483 C76.85446,59.1563409 80.7140101,50.0085706 80.7140101,40.277798 C80.7140101,30.5489108 76.85446,21.4020106 69.8462283,14.5218582 C62.8379967,7.64170589 53.5206236,3.85248093 43.6105645,3.85248093 L43.6105645,3.85248093 Z" id="Fill-2" fill="#FFFFFF" sketch:type="MSShapeGroup"></path>
                <path d="M61.4777143,23.10809 C63.6778322,25.267809 65.4241287,27.8369348 66.7272402,30.8230089 C68.0251813,33.8089378 68.6774018,36.9348164 68.6774018,40.2096361 C68.6774018,43.4844557 68.0251813,46.6119296 66.7272402,49.5978586 C65.4241287,52.580597 63.6778322,55.1532034 61.4777143,57.3129224 C59.2795168,59.4710461 56.6614755,61.1858271 53.6209311,62.4646615 C50.5789095,63.7401603 47.39108,64.3775472 44.0575904,64.3775472 C40.7212939,64.3775472 37.534794,63.7401603 34.4948406,62.4646615 C31.4542962,61.1858271 28.8344821,59.4710461 26.6383529,57.3129224 C24.4376441,55.1532034 22.688393,52.580597 21.3876451,49.5978586 C20.0888177,46.6119296 19.4388131,43.4844557 19.4388131,40.2096361 C19.4388131,36.9348164 20.0888177,33.8089378 21.3876451,30.8230089 C22.688393,27.8369348 24.4376441,25.267809 26.6383529,23.10809 C28.8344821,20.9515616 31.4542962,19.2333 34.4948406,17.9575112 C37.534794,16.6785317 40.7212939,16.0415799 44.0575904,16.0415799 C47.39108,16.0415799 50.5789095,16.6785317 53.6209311,17.9575112 C56.6614755,19.2333 59.2795168,20.9515616 61.4777143,23.10809 L61.4777143,23.10809 Z M27.872623,48.8982558 L36.8310163,49.9762299 L40.6517139,58.0136854 L37.4618162,59.8752321 C39.6063883,60.5745448 41.8041426,60.9257964 44.0575904,60.9257964 C46.3125155,60.9257964 48.508497,60.5745448 50.6511486,59.8752321 L47.4640578,58.0136854 L51.2843122,49.9762299 L60.2404896,48.8982558 L61.0668818,52.4589206 C63.7940944,48.80805 65.1605814,44.7228281 65.1605814,40.2096361 L65.1605814,40.1276967 L62.3559592,42.5310584 L55.7625486,36.4868328 L57.4642312,27.7757341 L61.1748712,28.100011 C58.4281585,24.3947558 54.8674627,21.8613062 50.4849543,20.492701 L51.9445101,23.8384382 L44.0575904,28.1255355 L36.1697843,23.8384382 L37.6281583,20.492701 C33.2478658,21.8613062 29.6880564,24.3947558 26.9404573,28.100011 L30.6234721,27.7757341 L32.3518935,36.4868328 L25.7553807,42.5310584 L22.9551903,40.1276967 L22.9551903,40.2096361 C22.9551903,44.7228281 24.319166,48.80805 27.0488899,52.4589206 L27.872623,48.8982558 L27.872623,48.8982558 Z M48.9215454,47.1173433 L39.1668965,47.1173433 L36.1697843,38.0515123 L44.0575904,32.4417829 L51.9445101,38.0515123 L48.9215454,47.1173433 L48.9215454,47.1173433 Z" id="Fill-3" fill="#FFFFFF" sketch:type="MSShapeGroup"></path>
                <path d="M124.772222,22.1746493 L124.772222,27.8206894 L107.917842,27.8206894 L107.917842,39.1124229 L122.142374,39.1124229 L122.142374,44.7844656 L107.917842,44.7844656 L107.917842,60.3239905 L100.792273,60.3239905 L100.792273,22.1746493 L124.772222,22.1746493" id="Fill-4" fill="#FFFFFF" sketch:type="MSShapeGroup"></path>
                <path d="M134.316172,33.2552413 L134.316172,50.456855 C134.316172,52.1102763 134.697294,53.3899529 135.459884,54.2955382 C136.222129,55.2014702 137.366186,55.6542629 138.891366,55.6542629 C140.012619,55.6542629 141.06442,55.4035974 142.046423,54.9022665 C143.02808,54.4009356 143.956871,53.7106521 144.833487,52.8310695 L144.833487,33.2552413 L151.328114,33.2552413 L151.328114,60.3239905 L147.357601,60.3239905 C146.51623,60.3239905 145.964415,59.9280569 145.701119,59.1368832 L145.254346,56.9734635 C144.693201,57.5365074 144.114434,58.051013 143.518736,58.5166336 C142.922693,58.9829476 142.287259,59.3785344 141.612434,59.7040875 C140.937609,60.0296406 140.209918,60.2841197 139.430051,60.4692586 C138.650185,60.653704 137.813305,60.7459267 136.919068,60.7459267 C135.446754,60.7459267 134.145479,60.4952612 133.014551,59.9939303 C131.883969,59.4925994 130.933064,58.7849808 130.16149,57.8703813 C129.390262,56.9561284 128.807349,55.8699114 128.413442,54.612077 C128.018844,53.3545893 127.821545,51.9695153 127.821545,50.456855 L127.821545,33.2552413 L134.316172,33.2552413" id="Fill-5" fill="#FFFFFF" sketch:type="MSShapeGroup"></path>
                <path d="M167.130347,60.7459267 C164.798695,60.7459267 163.002272,60.0823393 161.740042,58.7541244 C160.477812,57.4262562 159.84687,55.5925499 159.84687,53.2533524 L159.84687,38.1364571 L157.112327,38.1364571 C156.761611,38.1364571 156.45927,38.0216988 156.205304,37.7932222 C155.950992,37.5647457 155.824182,37.2218575 155.824182,36.7645577 L155.824182,34.1788551 L160.162341,33.4663828 L161.529613,26.0792059 C161.599756,25.7279969 161.761811,25.4551425 162.016468,25.2616828 C162.270089,25.0682232 162.590397,24.9711467 162.976011,24.9711467 L166.341497,24.9711467 L166.341497,33.4927321 L173.440806,33.4927321 L173.440806,38.1364571 L166.341497,38.1364571 L166.341497,52.8047201 C166.341497,53.6492859 166.551926,54.3087129 166.972439,54.7833478 C167.393298,55.2583293 167.954097,55.4958201 168.655527,55.4958201 C169.058418,55.4958201 169.395658,55.4476285 169.667592,55.3508987 C169.93918,55.2545156 170.17587,55.152932 170.377661,55.0475346 C170.578761,54.9417905 170.758783,54.8409003 170.916692,54.7438237 C171.074254,54.6477873 171.232163,54.5989024 171.390071,54.5989024 C171.582532,54.5989024 171.740095,54.6477873 171.863105,54.7438237 C171.985423,54.8409003 172.117071,54.9858216 172.257357,55.1792813 L174.20305,58.3453628 C173.256637,59.1368832 172.169592,59.7345973 170.942952,60.1391984 C169.715621,60.5434528 168.445098,60.7459267 167.130347,60.7459267" id="Fill-6" fill="#FFFFFF" sketch:type="MSShapeGroup"></path>
                <path d="M198.130132,35.9463413 C198.130132,36.4039878 198.046859,36.8481129 197.880658,37.2787166 C197.71342,37.7100138 197.516467,38.0747441 197.288761,38.3736012 L184.457415,55.3113747 L197.76214,55.3113747 L197.76214,60.3239905 L176.911333,60.3239905 L176.911333,57.6065411 C176.911333,57.3073374 176.981131,56.9512746 177.121417,56.538006 C177.261703,56.1247373 177.480771,55.7333109 177.778965,55.3640734 L190.715353,38.2415077 L177.673923,38.2415077 L177.673923,33.2552413 L198.130132,33.2552413 L198.130132,35.9463413" id="Fill-7" fill="#FFFFFF" sketch:type="MSShapeGroup"></path>
                <path d="M233.36338,60.3239905 L231.286039,60.3239905 C231.040366,60.3239905 230.83892,60.2577704 230.681358,60.1260237 C230.523449,59.9939303 230.400785,59.8223128 230.313366,59.6115181 L225.92234,48.7684169 L207.648168,48.7684169 L203.283403,59.6115181 C203.213259,59.8049778 203.090595,59.9720881 202.915411,60.112849 C202.73988,60.25361 202.529796,60.3239905 202.284468,60.3239905 L200.233388,60.3239905 L215.457546,22.992519 L218.139568,22.992519 L233.36338,60.3239905 L233.36338,60.3239905 Z M208.462933,46.7630932 L225.133489,46.7630932 L217.534886,27.8997374 C217.411877,27.6008804 217.288522,27.2621527 217.166549,26.8839009 C217.043885,26.5059959 216.920875,26.1055552 216.798557,25.683619 C216.675547,26.1055552 216.552883,26.5059959 216.430219,26.8839009 C216.307555,27.2621527 216.184546,27.6095479 216.062227,27.9260868 L208.462933,46.7630932 L208.462933,46.7630932 Z" id="Fill-8" fill="#FFFFFF" sketch:type="MSShapeGroup"></path>
                <path d="M237.990059,69.610747 L237.990059,34.0734578 L239.357331,34.0734578 C239.585037,34.0734578 239.76886,34.1216493 239.909492,34.2183792 C240.049778,34.315109 240.128559,34.4867264 240.146181,34.7328847 L240.382525,38.795884 C241.539713,37.2128433 242.893855,35.9557023 244.44495,35.0230742 C245.99639,34.0911396 247.736146,33.6248255 249.664562,33.6248255 C252.889416,33.6248255 255.396599,34.741899 257.184384,36.9753525 C258.972169,39.2091527 259.866406,42.5596796 259.866406,47.0269333 C259.866406,48.9441947 259.616586,50.7338698 259.116947,52.3956119 C258.617307,54.0580474 257.885469,55.5006739 256.921434,56.7227981 C255.957398,57.9452689 254.769458,58.9084067 253.358649,59.6115181 C251.947495,60.3149762 250.321765,60.6668786 248.481114,60.6668786 C246.693329,60.6668786 245.150527,60.3409789 243.853398,59.6905661 C242.555924,59.0405001 241.434326,58.0728552 240.487913,56.7883247 L240.487913,69.610747 L237.990059,69.610747 L237.990059,69.610747 Z M248.954493,35.6561518 C247.219229,35.6561518 245.645675,36.1092912 244.234866,37.0148765 C242.823712,37.9208085 241.574612,39.1828033 240.487913,40.800861 L240.487913,54.572553 C241.487192,56.0852133 242.59566,57.1492414 243.814008,57.7649839 C245.032355,58.3807264 246.421395,58.688251 247.981819,58.688251 C249.523931,58.688251 250.873926,58.4067291 252.030768,57.8436852 C253.187611,57.2809881 254.156138,56.4849606 254.93635,55.4562961 C255.716217,54.4272849 256.303622,53.1964933 256.697874,51.7625343 C257.092472,50.3296154 257.289426,48.7510818 257.289426,47.0269333 C257.289426,43.1223768 256.57521,40.2513385 255.146779,38.4131252 C253.717657,36.5756052 251.653792,35.6561518 248.954493,35.6561518 L248.954493,35.6561518 Z" id="Fill-9" fill="#FFFFFF" sketch:type="MSShapeGroup"></path>
                <path d="M266.123653,69.610747 L266.123653,34.0734578 L267.490924,34.0734578 C267.71863,34.0734578 267.902453,34.1216493 268.043085,34.2183792 C268.183371,34.315109 268.262153,34.4867264 268.279775,34.7328847 L268.516119,38.795884 C269.673307,37.2128433 271.027448,35.9557023 272.578543,35.0230742 C274.129984,34.0911396 275.86974,33.6248255 277.798156,33.6248255 C281.02301,33.6248255 283.529847,34.741899 285.317632,36.9753525 C287.105762,39.2091527 288,42.5596796 288,47.0269333 C288,48.9441947 287.749835,50.7338698 287.25054,52.3956119 C286.7509,54.0580474 286.019063,55.5006739 285.055027,56.7227981 C284.090992,57.9452689 282.903052,58.9084067 281.492243,59.6115181 C280.081088,60.3149762 278.455358,60.6668786 276.614707,60.6668786 C274.826923,60.6668786 273.284121,60.3409789 271.986992,59.6905661 C270.689518,59.0405001 269.56792,58.0728552 268.621506,56.7883247 L268.621506,69.610747 L266.123653,69.610747 L266.123653,69.610747 Z M277.088087,35.6561518 C275.352823,35.6561518 273.779269,36.1092912 272.36846,37.0148765 C270.957305,37.9208085 269.708206,39.1828033 268.621506,40.800861 L268.621506,54.572553 C269.620786,56.0852133 270.729254,57.1492414 271.947601,57.7649839 C273.165603,58.3807264 274.554989,58.688251 276.115413,58.688251 C277.657524,58.688251 279.007519,58.4067291 280.164362,57.8436852 C281.321204,57.2809881 282.289732,56.4849606 283.069598,55.4562961 C283.849465,54.4272849 284.43687,53.1964933 284.831468,51.7625343 C285.226066,50.3296154 285.423019,48.7510818 285.423019,47.0269333 C285.423019,43.1223768 284.708804,40.2513385 283.280373,38.4131252 C281.851251,36.5756052 279.787386,35.6561518 277.088087,35.6561518 L277.088087,35.6561518 Z" id="Fill-10" fill="#FFFFFF" sketch:type="MSShapeGroup"></path>
                <path id="Fill-32" fill="#FFFFFF" sketch:type="MSShapeGroup" d="M99.5110388,79.4619341 L99.5110388,80.4756904 L99.5110388,79.4619341"></path>
                <path id="Fill-34" fill="#FFFFFF" sketch:type="MSShapeGroup" d="M287.438855,80.4756904 L287.438855,79.4619341 L287.438855,80.4756904"></path>
            </g>
        </g>
    </g>
</svg>